<?xml version="1.0" standalone="no"?>
<!DOCTYPE svg PUBLIC "-//W3C//DTD SVG 20010904//EN"
 "http://www.w3.org/TR/2001/REC-SVG-20010904/DTD/svg10.dtd">
<svg version="1.0" xmlns="http://www.w3.org/2000/svg"
 width="1024.000000pt" height="1024.000000pt" viewBox="0 0 1024.000000 1024.000000"
 preserveAspectRatio="xMidYMid meet">

<g transform="translate(0.000000,1024.000000) scale(0.100000,-0.100000)"
fill="#000000" stroke="none">
<path d="M0 5120 l0 -5120 5120 0 5120 0 0 761 c0 720 -1 761 -17 754 -10 -3
-40 -11 -66 -17 -26 -5 -78 -25 -115 -43 -123 -61 -237 -111 -282 -125 -25 -8
-58 -21 -75 -30 -16 -9 -55 -25 -85 -35 -30 -10 -61 -22 -67 -28 -7 -5 -13 -7
-13 -3 0 4 -10 0 -22 -8 -13 -8 -59 -28 -103 -45 -44 -18 -103 -43 -130 -56
-28 -14 -58 -25 -68 -25 -9 0 -17 -4 -17 -10 0 -5 -17 -12 -37 -16 -21 -4 -42
-10 -48 -14 -5 -4 -32 -13 -60 -19 -49 -10 -50 -10 -78 21 -15 18 -26 37 -24
41 1 5 27 17 57 27 30 9 78 28 105 42 28 15 68 32 90 39 22 6 72 27 112 45 40
19 77 34 83 34 7 0 44 16 83 36 40 20 80 38 89 39 9 2 50 19 90 38 40 19 102
45 138 57 36 12 76 28 90 36 14 7 51 22 83 34 33 11 78 31 100 43 50 28 88 42
145 57 l42 11 0 3433 0 3433 -38 27 c-21 14 -41 26 -44 26 -3 0 -50 29 -103
65 -54 36 -107 65 -117 65 -25 0 -23 10 14 61 28 39 32 41 39 23 4 -12 22 -27
41 -34 18 -8 69 -35 114 -62 45 -26 84 -48 88 -48 3 0 6 321 6 714 0 556 -3
716 -13 719 -9 4 -9 6 1 6 8 1 12 25 12 86 l0 85 -5120 0 -5120 0 0 -5120z
m7249 5074 c-6 -8 -17 -14 -23 -13 -7 0 -6 2 2 6 6 2 12 11 12 19 0 9 5 12 10
9 8 -5 7 -11 -1 -21z m126 16 c3 -5 1 -10 -4 -10 -6 0 -11 5 -11 10 0 6 2 10
4 10 3 0 8 -4 11 -10z m-1140 -20 c3 -5 1 -10 -4 -10 -6 0 -11 5 -11 10 0 6 2
10 4 10 3 0 8 -4 11 -10z m1095 6 c0 -11 -19 -15 -25 -6 -3 5 1 10 9 10 9 0
16 -2 16 -4z m-915 -16 c3 -5 1 -10 -4 -10 -6 0 -11 5 -11 10 0 6 2 10 4 10 3
0 8 -4 11 -10z m1165 0 c0 -5 -5 -10 -11 -10 -5 0 -7 5 -4 10 3 6 8 10 11 10
2 0 4 -4 4 -10z m-1305 -10 c3 -6 -1 -7 -9 -4 -18 7 -21 14 -7 14 6 0 13 -4
16 -10z m-495 -24 c0 -3 -4 -8 -10 -11 -5 -3 -10 -1 -10 4 0 6 5 11 10 11 6 0
10 -2 10 -4z m1650 -6 c0 -5 -4 -10 -10 -10 -5 0 -10 5 -10 10 0 6 5 10 10 10
6 0 10 -4 10 -10z m2714 -2 c-3 -4 -9 -8 -15 -8 -5 0 -9 4 -9 8 0 5 7 9 15 9
8 0 12 -4 9 -9z m-4724 -8 c0 -5 -2 -10 -4 -10 -3 0 -8 5 -11 10 -3 6 -1 10 4
10 6 0 11 -4 11 -10z m434 -30 c-6 -5 -24 21 -24 34 0 6 6 1 14 -10 8 -10 12
-21 10 -24z m1236 30 c0 -5 -7 -7 -15 -4 -8 4 -15 8 -15 10 0 2 7 4 15 4 8 0
15 -4 15 -10z m-133 -6 c-3 -3 -12 -4 -19 -1 -8 3 -5 6 6 6 11 1 17 -2 13 -5z
m432 -15 c-16 -10 -23 -4 -14 10 3 6 11 8 17 5 6 -4 5 -9 -3 -15z m-464 -7
c-3 -3 -11 0 -18 7 -9 10 -8 11 6 5 10 -3 15 -9 12 -12z m128 3 c-3 -9 -8 -14
-10 -11 -3 3 -2 9 2 15 9 16 15 13 8 -4z m63 0 c-8 -8 -20 -15 -27 -15 -7 0
-4 6 7 15 25 19 40 19 20 0z m334 5 c0 -5 -2 -10 -4 -10 -3 0 -8 5 -11 10 -3
6 -1 10 4 10 6 0 11 -4 11 -10z m-1640 -10 c0 -5 -7 -10 -16 -10 -8 0 -12 5
-9 10 3 6 10 10 16 10 5 0 9 -4 9 -10z m510 6 c0 -3 -4 -8 -10 -11 -5 -3 -10
-1 -10 4 0 6 5 11 10 11 6 0 10 -2 10 -4z m881 -19 c-10 -9 -11 -8 -5 6 3 10
9 15 12 12 3 -3 0 -11 -7 -18z m224 13 c3 -5 1 -10 -4 -10 -6 0 -11 5 -11 10
0 6 2 10 4 10 3 0 8 -4 11 -10z m295 0 c0 -5 -7 -10 -16 -10 -8 0 -12 5 -9 10
3 6 10 10 16 10 5 0 9 -4 9 -10z m480 0 c0 -5 -2 -10 -4 -10 -3 0 -8 5 -11 10
-3 6 -1 10 4 10 6 0 11 -4 11 -10z m480 0 c0 -5 -2 -10 -4 -10 -3 0 -8 5 -11
10 -3 6 -1 10 4 10 6 0 11 -4 11 -10z m1340 0 c0 -5 -4 -10 -10 -10 -5 0 -10
5 -10 10 0 6 5 10 10 10 6 0 10 -4 10 -10z m-3007 -7 c-7 -2 -13 -12 -13 -20
0 -9 -3 -14 -6 -10 -10 10 4 37 18 36 10 0 10 -2 1 -6z m3102 -3 c-3 -5 -10
-10 -16 -10 -5 0 -9 5 -9 10 0 6 7 10 16 10 8 0 12 -4 9 -10z m-3940 -10 c3
-5 1 -10 -4 -10 -6 0 -11 5 -11 10 0 6 2 10 4 10 3 0 8 -4 11 -10z m1275 -20
c0 -5 -4 -10 -10 -10 -5 0 -10 5 -10 10 0 6 5 10 10 10 6 0 10 -4 10 -10z
m110 0 c0 -5 -2 -10 -4 -10 -3 0 -8 5 -11 10 -3 6 -1 10 4 10 6 0 11 -4 11
-10z m48 1 c15 -9 6 -31 -28 -73 -16 -20 -40 -24 -40 -7 0 5 4 8 8 5 12 -7 44
33 37 44 -4 6 2 10 11 10 16 0 16 1 -2 15 -20 15 -8 21 14 6z m-2503 -11 c3
-5 1 -10 -4 -10 -6 0 -11 5 -11 10 0 6 2 10 4 10 3 0 8 -4 11 -10z m1280 0 c3
-5 1 -10 -4 -10 -6 0 -11 5 -11 10 0 6 2 10 4 10 3 0 8 -4 11 -10z m-504 -23
c-10 -9 -11 -8 -5 6 3 10 9 15 12 12 3 -3 0 -11 -7 -18z m259 3 c0 -5 -4 -12
-10 -15 -5 -3 -10 2 -10 12 0 15 -2 16 -10 3 -5 -8 -10 -10 -10 -4 0 6 3 13 6
17 8 7 34 -3 34 -13z m875 10 c3 -6 -1 -7 -9 -4 -18 7 -21 14 -7 14 6 0 13 -4
16 -10z m55 0 c0 -5 -2 -10 -4 -10 -3 0 -8 5 -11 10 -3 6 -1 10 4 10 6 0 11
-4 11 -10z m464 1 c17 -6 17 -8 3 -14 -8 -3 -21 1 -27 9 -13 15 -6 17 24 5z
m-1184 -11 c0 -5 -4 -10 -10 -10 -5 0 -10 5 -10 10 0 6 5 10 10 10 6 0 10 -4
10 -10z m250 0 c0 -5 -2 -10 -4 -10 -3 0 -8 5 -11 10 -3 6 -1 10 4 10 6 0 11
-4 11 -10z m610 -2 c0 -10 -51 -10 -67 0 -6 4 6 7 28 7 21 0 39 -3 39 -7z
m276 -6 c1 -7 0 -8 -3 -2 -2 5 -9 8 -14 4 -5 -3 -9 0 -9 6 0 15 23 7 26 -8z
m-3684 -3 c25 -14 78 -128 78 -169 0 -26 -6 -33 -37 -47 -21 -9 -68 -18 -105
-21 -38 -2 -68 -9 -68 -13 0 -20 -19 -7 -28 19 -6 15 -24 60 -41 101 -17 40
-31 78 -31 85 0 12 136 53 183 55 16 1 37 -4 49 -10z m2058 -4 c0 -8 -4 -15
-8 -15 -5 0 -9 7 -9 15 0 8 4 15 9 15 4 0 8 -7 8 -15z m1440 5 c0 -5 -2 -10
-4 -10 -3 0 -8 5 -11 10 -3 6 -1 10 4 10 6 0 11 -4 11 -10z m2740 6 c0 -11
-19 -15 -25 -6 -3 5 1 10 9 10 9 0 16 -2 16 -4z m-4900 -16 c0 -5 -2 -10 -4
-10 -3 0 -8 5 -11 10 -3 6 -1 10 4 10 6 0 11 -4 11 -10z m660 -4 c-4 -4 -16
-4 -26 2 -16 9 -14 10 8 9 15 -1 23 -6 18 -11z m1530 4 c0 -5 -2 -10 -4 -10
-3 0 -8 5 -11 10 -3 6 -1 10 4 10 6 0 11 -4 11 -10z m48 -26 c-10 -10 -36 8
-31 22 4 11 7 11 20 -2 9 -8 13 -17 11 -20z m67 27 c3 -5 2 -12 -3 -15 -5 -3
-9 1 -9 9 0 17 3 19 12 6z m110 -1 c3 -5 1 -10 -4 -10 -6 0 -11 5 -11 10 0 6
2 10 4 10 3 0 8 -4 11 -10z m-455 -21 c0 -5 -4 -9 -10 -9 -5 0 -10 7 -10 16 0
8 5 12 10 9 6 -3 10 -10 10 -16z m135 12 c3 -5 1 -12 -5 -16 -5 -3 -10 1 -10
9 0 18 6 21 15 7z m290 -1 c3 -5 -1 -10 -9 -10 -9 0 -16 5 -16 10 0 6 4 10 9
10 6 0 13 -4 16 -10z m-1618 -6 c-3 -3 -12 -4 -19 -1 -8 3 -5 6 6 6 11 1 17
-2 13 -5z m1387 -6 c-3 -4 -11 -5 -19 -1 -21 7 -19 12 4 10 11 0 18 -5 15 -9z
m183 -3 c0 -8 -4 -15 -9 -15 -10 0 -11 14 -1 23 9 10 10 9 10 -8z m168 -5 c3
-11 11 -20 17 -20 5 0 7 7 4 16 -3 8 -2 12 4 9 14 -9 12 -19 -8 -42 -15 -19
-20 -19 -37 -7 -15 11 -16 16 -6 27 7 6 12 8 11 2 -4 -19 0 -26 11 -20 7 5 5
15 -6 31 -8 13 -11 24 -6 24 5 0 13 -9 16 -20z m-3160 0 c3 -5 1 -10 -4 -10
-6 0 -11 5 -11 10 0 6 2 10 4 10 3 0 8 -4 11 -10z m960 -8 c-3 -3 -11 0 -18 7
-9 10 -8 11 6 5 10 -3 15 -9 12 -12z m1618 -3 c5 -3 2 -9 -5 -12 -9 -3 -14 3
-15 15 -1 11 1 16 5 12 4 -5 11 -12 15 -15z m697 13 c0 -5 -7 -9 -15 -9 -8 0
-12 4 -9 9 3 4 9 8 15 8 5 0 9 -4 9 -8z m413 -5 c4 3 7 1 7 -5 0 -17 -16 -15
-31 6 -12 15 -12 16 2 5 9 -7 19 -10 22 -6z m-1198 -7 c-3 -5 -11 -10 -16 -10
-6 0 -7 5 -4 10 3 6 11 10 16 10 6 0 7 -4 4 -10z m32 -5 c0 -8 -4 -15 -9 -15
-10 0 -11 14 -1 23 9 10 10 9 10 -8z m253 5 c0 -5 9 -10 20 -10 11 0 20 -4 20
-9 0 -11 -38 -2 -46 11 -3 5 -12 1 -21 -9 -13 -17 -13 -16 -3 5 11 22 30 30
30 12z m90 0 c0 -5 -5 -10 -11 -10 -5 0 -7 5 -4 10 3 6 8 10 11 10 2 0 4 -4 4
-10z m865 0 c3 -5 1 -10 -4 -10 -6 0 -11 5 -11 10 0 6 2 10 4 10 3 0 8 -4 11
-10z m-4649 -52 c9 -29 19 -59 22 -67 3 -8 1 -12 -4 -9 -22 14 -294 -52 -294
-71 0 -4 -14 -8 -31 -9 -17 -1 -39 -6 -48 -11 -9 -5 -56 -19 -105 -30 -49 -12
-96 -26 -103 -33 -7 -6 -21 -12 -31 -13 -9 -1 -24 -4 -32 -7 -8 -3 -35 -12
-60 -19 -25 -7 -47 -13 -50 -14 -3 -1 -22 -9 -42 -18 -21 -10 -47 -17 -58 -17
-12 0 -19 -3 -17 -7 3 -5 -12 -9 -33 -9 -21 -1 -63 -10 -92 -20 -29 -10 -64
-17 -77 -16 -14 1 -35 -5 -47 -13 -13 -8 -36 -15 -52 -15 -16 0 -32 -3 -36 -7
-3 -4 -12 -8 -19 -9 -15 -2 -110 -31 -162 -50 -23 -8 -53 -14 -67 -14 -14 0
-28 -5 -30 -12 -4 -11 -87 -37 -124 -38 -12 0 -27 -6 -33 -13 -6 -8 -37 -19
-68 -26 -32 -7 -78 -19 -103 -27 -25 -7 -72 -16 -105 -18 -33 -2 -61 -9 -63
-15 -5 -14 -42 -14 -42 0 0 8 -4 8 -13 0 -8 -6 -31 -13 -51 -16 -32 -4 -36 -2
-26 10 7 8 25 15 41 15 16 0 29 4 29 9 0 5 11 9 25 9 31 0 44 10 26 21 -9 6
-3 10 20 14 19 3 67 17 108 31 40 14 77 24 81 21 4 -3 11 2 14 11 3 8 11 14
18 13 19 -3 88 12 88 20 0 3 26 12 58 20 31 7 66 18 77 24 23 12 28 14 70 23
17 3 44 12 60 19 17 7 50 19 75 26 25 7 48 17 51 22 3 5 9 8 13 7 11 -4 81 12
91 20 6 4 42 17 80 28 39 12 108 34 155 50 47 16 123 39 170 52 47 13 110 31
140 40 30 10 100 31 155 48 135 41 301 91 353 108 23 8 49 14 57 14 8 0 15 5
15 10 0 23 9 7 26 -42z m659 42 c-3 -5 -12 -10 -18 -10 -7 0 -6 4 3 10 19 12
23 12 15 0z m1673 -4 c-7 -8 -15 -12 -17 -11 -5 6 10 25 20 25 5 0 4 -6 -3
-14z m290 -2 c-13 -13 -20 -14 -34 -5 -17 11 -17 11 3 6 12 -3 24 -1 28 5 3 5
9 10 13 10 3 0 -1 -7 -10 -16z m1032 12 c0 -3 -4 -8 -10 -11 -5 -3 -10 -1 -10
4 0 6 5 11 10 11 6 0 10 -2 10 -4z m314 -12 c3 -8 2 -12 -4 -9 -6 3 -10 10
-10 16 0 14 7 11 14 -7z m-1669 -4 c3 -6 -1 -7 -9 -4 -18 7 -21 14 -7 14 6 0
13 -4 16 -10z m215 -5 c8 -9 6 -14 -6 -19 -9 -4 -19 -4 -22 -1 -3 3 0 5 6 5 7
0 12 5 12 10 0 6 -11 8 -25 4 -14 -3 -25 -2 -25 4 0 14 48 12 60 -3z m30 5 c0
-5 -2 -10 -4 -10 -3 0 -8 5 -11 10 -3 6 -1 10 4 10 6 0 11 -4 11 -10z m1070 6
c0 -3 -4 -8 -10 -11 -5 -3 -10 -1 -10 4 0 6 5 11 10 11 6 0 10 -2 10 -4z m605
-12 c34 -34 255 -94 348 -94 76 0 102 -10 178 -71 41 -33 145 -110 232 -170
86 -61 157 -114 157 -118 0 -4 -3 -11 -7 -17 -5 -5 8 8 28 28 50 52 77 50 127
-7 28 -32 47 -45 66 -45 25 0 24 -3 -36 -80 -55 -70 -65 -79 -88 -73 -35 9
-95 48 -114 74 -13 20 -17 21 -32 8 -20 -16 -17 -9 19 46 l20 30 -27 -28 -27
-27 -32 24 c-18 13 -72 45 -122 72 -112 60 -187 107 -205 129 -12 15 -12 19 5
31 27 20 8 49 -31 49 -26 0 -29 -3 -28 -30 0 -16 4 -39 9 -50 6 -15 0 -13 -26
11 -55 49 -159 111 -230 137 -73 26 -121 59 -138 95 -6 12 -26 30 -46 39 -21
10 -35 24 -35 35 0 22 13 23 35 2z m-2605 2 c0 -3 -4 -8 -10 -11 -5 -3 -10 -1
-10 4 0 6 5 11 10 11 6 0 10 -2 10 -4z m1890 -16 c-6 -11 -16 -20 -22 -20 -6
0 -1 -9 11 -19 12 -11 18 -21 14 -24 -4 -2 -18 6 -31 19 -12 13 -18 24 -12 24
5 0 10 7 10 16 0 8 4 13 9 9 5 -3 12 -1 16 5 11 19 16 10 5 -10z m510 10 c0
-5 -4 -10 -9 -10 -6 0 -13 5 -16 10 -3 6 1 10 9 10 9 0 16 -4 16 -10z m-1325
-10 c3 -5 1 -10 -4 -10 -6 0 -11 5 -11 10 0 6 2 10 4 10 3 0 8 -4 11 -10z
m220 -8 c-3 -3 -11 0 -18 7 -9 10 -8 11 6 5 10 -3 15 -9 12 -12z m480 2 c-9
-9 -18 -14 -21 -11 -9 9 6 27 22 27 13 0 13 -2 -1 -16z m304 13 c-2 -1 -13 -9
-24 -17 -19 -14 -19 -14 -6 3 7 9 18 17 24 17 6 0 8 -1 6 -3z m-1219 -17 c0
-5 -5 -10 -11 -10 -5 0 -7 5 -4 10 3 6 8 10 11 10 2 0 4 -4 4 -10z m120 -10
c-6 -11 -15 -20 -20 -20 -6 0 -2 9 7 20 10 11 19 20 21 20 1 0 -2 -9 -8 -20z
m838 -5 c-3 -3 -9 2 -12 12 -6 14 -5 15 5 6 7 -7 10 -15 7 -18z m512 14 c0
-14 -25 -39 -40 -39 -6 0 -4 10 6 25 17 26 34 33 34 14z m85 1 c3 -6 -4 -10
-17 -10 -18 0 -20 2 -8 10 19 12 18 12 25 0z m90 1 c3 -5 1 -12 -5 -16 -5 -3
-10 1 -10 9 0 18 6 21 15 7z m-3355 -21 c8 -5 11 -10 5 -10 -5 0 -17 5 -25 10
-8 5 -10 10 -5 10 6 0 17 -5 25 -10z m1635 0 c-3 -5 -11 -10 -16 -10 -6 0 -7
5 -4 10 3 6 11 10 16 10 6 0 7 -4 4 -10z m1455 -4 c-4 -4 -16 -4 -26 2 -16 9
-14 10 8 9 15 -1 23 -6 18 -11z m298 -11 c1 -14 -3 -25 -8 -25 -5 0 -7 -8 -4
-17 5 -15 4 -16 -5 -3 -6 9 -7 18 -1 24 17 17 11 28 -12 21 -23 -7 -23 -7 -3
9 27 21 30 20 33 -9z m1532 16 c0 -5 -7 -12 -16 -15 -14 -5 -15 -4 -4 9 14 17
20 19 20 6z m-4085 -30 c-6 -5 -25 10 -25 20 0 5 6 4 14 -3 8 -7 12 -15 11
-17z m35 19 c0 -5 -2 -10 -4 -10 -3 0 -8 5 -11 10 -3 6 -1 10 4 10 6 0 11 -4
11 -10z m886 -5 c12 -9 14 -14 6 -15 -7 0 -20 7 -28 15 -20 19 -4 20 22 0z
m165 -2 c13 -17 13 -17 -6 -3 -11 8 -22 16 -24 17 -2 2 0 3 6 3 6 0 17 -8 24
-17z m649 13 c0 -2 -7 -7 -16 -10 -8 -3 -12 -2 -9 4 6 10 25 14 25 6z m35 -5
c3 -5 1 -12 -5 -16 -5 -3 -10 1 -10 9 0 18 6 21 15 7z m202 3 c-3 -3 -12 -4
-19 -1 -8 3 -5 6 6 6 11 1 17 -2 13 -5z m459 -3 c-4 -5 -1 -12 4 -14 6 -3 5
-4 -2 -3 -7 2 -22 -1 -33 -6 -16 -7 -16 -5 4 11 25 22 36 27 27 12z m1414 -1
c0 -5 -2 -10 -4 -10 -3 0 -8 5 -11 10 -3 6 -1 10 4 10 6 0 11 -4 11 -10z m397
-12 c-3 -8 -6 -5 -6 6 -1 11 2 17 5 13 3 -3 4 -12 1 -19z m-4907 2 c0 -5 -5
-10 -11 -10 -5 0 -7 5 -4 10 3 6 8 10 11 10 2 0 4 -4 4 -10z m1540 0 c0 -5 -2
-10 -4 -10 -3 0 -8 5 -11 10 -3 6 -1 10 4 10 6 0 11 -4 11 -10z m165 0 c3 -5
1 -10 -4 -10 -6 0 -11 5 -11 10 0 6 2 10 4 10 3 0 8 -4 11 -10z m1175 0 c0 -5
-4 -10 -9 -10 -6 0 -13 5 -16 10 -3 6 1 10 9 10 9 0 16 -4 16 -10z m55 -9 c-3
-6 -11 -8 -17 -5 -6 4 -5 9 3 15 16 10 23 4 14 -10z m-1255 5 c0 -3 -4 -8 -10
-11 -5 -3 -10 -1 -10 4 0 6 5 11 10 11 6 0 10 -2 10 -4z m950 -4 c0 -5 -7 -9
-15 -9 -8 0 -12 4 -9 9 3 4 9 8 15 8 5 0 9 -4 9 -8z m406 -19 c-6 -6 -36 9
-36 18 0 5 9 4 20 -3 10 -7 18 -14 16 -15z m-3083 2 c-3 -9 -8 -14 -10 -11 -3
3 -2 9 2 15 9 16 15 13 8 -4z m1514 9 c-3 -3 -12 -4 -19 -1 -8 3 -5 6 6 6 11
1 17 -2 13 -5z m948 -4 c3 -5 1 -10 -4 -10 -6 0 -11 5 -11 10 0 6 2 10 4 10 3
0 8 -4 11 -10z m555 0 c0 -5 -2 -10 -4 -10 -3 0 -8 5 -11 10 -3 6 -1 10 4 10
6 0 11 -4 11 -10z m-1676 -15 c-4 -8 -8 -15 -10 -15 -2 0 -4 7 -4 15 0 8 4 15
10 15 5 0 7 -7 4 -15z m216 5 c0 -5 -2 -10 -4 -10 -3 0 -8 5 -11 10 -3 6 -1
10 4 10 6 0 11 -4 11 -10z m70 1 c0 -6 -4 -13 -10 -16 -5 -3 -10 1 -10 9 0 9
5 16 10 16 6 0 10 -4 10 -9z m167 3 c-3 -3 -12 -4 -19 -1 -8 3 -5 6 6 6 11 1
17 -2 13 -5z m743 -4 c0 -5 -4 -10 -10 -10 -5 0 -10 5 -10 10 0 6 5 10 10 10
6 0 10 -4 10 -10z m360 -1 c12 -8 10 -9 -8 -4 -17 5 -24 1 -31 -17 -6 -14 -10
-17 -10 -7 -1 14 17 39 29 39 3 0 12 -5 20 -11z m1242 -11 c-7 -7 -12 -8 -12
-2 0 14 12 26 19 19 2 -3 -1 -11 -7 -17z m-3957 2 c-3 -5 -12 -10 -18 -10 -7
0 -6 4 3 10 19 12 23 12 15 0z m2385 -11 c0 -5 -4 -9 -10 -9 -5 0 -10 7 -10
16 0 8 5 12 10 9 6 -3 10 -10 10 -16z m615 11 c3 -5 -1 -10 -9 -10 -9 0 -16 5
-16 10 0 6 4 10 9 10 6 0 13 -4 16 -10z m-1725 -10 c8 -5 11 -10 5 -10 -5 0
-17 5 -25 10 -8 5 -10 10 -5 10 6 0 17 -5 25 -10z m330 0 c11 -8 7 -9 -15 -4
-37 8 -45 14 -19 14 10 0 26 -5 34 -10z m420 0 c0 -5 -5 -10 -11 -10 -5 0 -7
5 -4 10 3 6 8 10 11 10 2 0 4 -4 4 -10z m720 -10 c0 -5 -2 -10 -4 -10 -3 0 -8
5 -11 10 -3 6 -1 10 4 10 6 0 11 -4 11 -10z m1670 0 c0 -5 -5 -10 -11 -10 -5
0 -7 5 -4 10 3 6 8 10 11 10 2 0 4 -4 4 -10z m-3185 -18 c-3 -3 -11 0 -18 7
-9 10 -8 11 6 5 10 -3 15 -9 12 -12z m1119 -9 c-8 -9 -12 -18 -9 -21 3 -4 10
0 14 7 5 7 11 9 14 4 3 -5 2 -15 -3 -23 -7 -11 -11 -11 -24 -1 -18 15 -21 41
-5 41 5 0 7 4 4 10 -3 6 1 7 9 4 14 -5 14 -8 0 -21z m150 6 c-3 -5 -10 -7 -15
-3 -5 3 -7 10 -3 15 3 5 10 7 15 3 5 -3 7 -10 3 -15z m46 11 c0 -5 -5 -10 -11
-10 -5 0 -7 5 -4 10 3 6 8 10 11 10 2 0 4 -4 4 -10z m355 -2 c5 4 5 1 1 -5
-10 -18 -33 -16 -33 2 0 10 4 12 12 5 7 -5 16 -6 20 -2z m42 6 c-3 -3 -12 -4
-19 -1 -8 3 -5 6 6 6 11 1 17 -2 13 -5z m49 -6 c4 -7 4 -10 -1 -6 -4 4 -16 -2
-26 -14 -22 -24 -25 -17 -7 12 15 23 24 25 34 8z m-1421 -8 c3 -5 1 -10 -4
-10 -6 0 -11 5 -11 10 0 6 2 10 4 10 3 0 8 -4 11 -10z m145 0 c0 -5 -4 -10
-10 -10 -5 0 -10 5 -10 10 0 6 5 10 10 10 6 0 10 -4 10 -10z m220 -5 c0 -12
-19 -12 -23 0 -4 9 -1 12 9 8 7 -3 14 -7 14 -8z m110 5 c0 -5 -4 -10 -10 -10
-5 0 -10 5 -10 10 0 6 5 10 10 10 6 0 10 -4 10 -10z m393 -7 c-5 -12 -3 -14 8
-8 8 5 11 4 6 0 -4 -5 -14 -10 -22 -11 -12 -2 -12 2 -5 17 13 23 22 25 13 2z
m271 9 c3 -5 -6 -15 -20 -22 -20 -11 -27 -11 -37 -1 -9 10 -9 12 3 11 28 -4
41 0 35 10 -3 6 -2 10 4 10 5 0 12 -4 15 -8z m1076 -2 c0 -5 -2 -10 -4 -10 -3
0 -8 5 -11 10 -3 6 -1 10 4 10 6 0 11 -4 11 -10z m-1793 -6 c-3 -3 -12 -4 -19
-1 -8 3 -5 6 6 6 11 1 17 -2 13 -5z m408 -3 c3 -5 1 -12 -4 -15 -5 -3 -11 1
-15 9 -6 16 9 21 19 6z m191 -21 c8 0 14 -5 14 -10 0 -7 -7 -7 -21 0 -11 7
-27 9 -35 6 -8 -3 -14 -1 -14 4 0 6 7 10 15 10 8 0 16 6 16 13 1 6 3 4 6 -5 2
-10 11 -18 19 -18z m429 11 c-3 -6 -11 -11 -17 -11 -6 0 -6 6 2 15 14 17 26
13 15 -4z m1033 -6 c-3 -3 -9 2 -12 12 -6 14 -5 15 5 6 7 -7 10 -15 7 -18z
m537 16 c3 -5 0 -13 -6 -17 -7 -4 -9 -3 -5 4 3 5 0 13 -6 15 -9 4 -10 6 -1 6
6 1 14 -3 18 -8z m-3965 -11 c0 -5 -5 -10 -11 -10 -5 0 -7 5 -4 10 3 6 8 10
11 10 2 0 4 -4 4 -10z m2300 0 c0 -5 -5 -10 -11 -10 -5 0 -7 5 -4 10 3 6 8 10
11 10 2 0 4 -4 4 -10z m1545 0 c3 -5 1 -10 -4 -10 -6 0 -11 5 -11 10 0 6 2 10
4 10 3 0 8 -4 11 -10z m-2520 -10 c3 -5 1 -10 -4 -10 -6 0 -11 5 -11 10 0 6 2
10 4 10 3 0 8 -4 11 -10z m305 6 c0 -11 -19 -15 -25 -6 -3 5 1 10 9 10 9 0 16
-2 16 -4z m499 -19 c0 -9 -2 -8 -6 1 -2 6 -10 9 -15 6 -7 -4 -8 -2 -4 5 9 13
26 5 25 -12z m126 4 c-3 -6 -11 -8 -17 -5 -6 4 -5 9 3 15 16 10 23 4 14 -10z
m230 1 c-3 -3 -11 0 -18 7 -9 10 -8 11 6 5 10 -3 15 -9 12 -12z m1567 11 c-6
-2 -9 -10 -6 -15 4 -7 2 -8 -5 -4 -13 9 -5 26 12 25 9 0 8 -2 -1 -6z m-3252
-7 c0 -2 -7 -7 -16 -10 -8 -3 -12 -2 -9 4 6 10 25 14 25 6z m486 -5 c-4 -5 0
-11 6 -14 7 -2 10 -7 7 -11 -3 -3 -14 3 -24 14 -17 18 -17 20 -1 20 9 0 15 -4
12 -9z m534 -5 c0 -2 -7 -6 -15 -10 -8 -3 -15 -1 -15 4 0 6 7 10 15 10 8 0 15
-2 15 -4z m229 -10 c10 -12 8 -13 -8 -9 -12 3 -21 9 -21 14 0 14 16 11 29 -5z
m-369 -6 c0 -5 -7 -10 -16 -10 -8 0 -12 5 -9 10 3 6 10 10 16 10 5 0 9 -4 9
-10z m46 -5 c17 -16 14 -18 -10 -9 -9 3 -16 10 -16 15 0 13 9 11 26 -6z m228
-1 c3 -8 2 -12 -4 -9 -6 3 -10 10 -10 16 0 14 7 11 14 -7z m149 9 c-7 -2 -19
-2 -25 0 -7 3 -2 5 12 5 14 0 19 -2 13 -5z m251 -8 c-4 -10 0 -15 12 -15 14 0
15 -3 6 -12 -9 -9 -16 -7 -32 9 -14 15 -16 23 -7 26 22 9 26 7 21 -8z m57 -15
c5 0 1 -8 -8 -18 -21 -21 -32 -20 -14 2 8 10 9 16 1 21 -6 3 -7 12 -3 18 5 8
9 7 11 -5 2 -10 8 -18 13 -18z m-1144 14 c-3 -3 -12 -4 -19 -1 -8 3 -5 6 6 6
11 1 17 -2 13 -5z m123 2 c0 -3 -4 -8 -10 -11 -5 -3 -10 -1 -10 4 0 6 5 11 10
11 6 0 10 -2 10 -4z m918 -21 c-3 -3 -9 2 -12 12 -6 14 -5 15 5 6 7 -7 10 -15
7 -18z m1132 15 c0 -5 -2 -10 -4 -10 -3 0 -8 5 -11 10 -3 6 -1 10 4 10 6 0 11
-4 11 -10z m-1993 -22 c-3 -8 -6 -5 -6 6 -1 11 2 17 5 13 3 -3 4 -12 1 -19z
m338 3 c-3 -6 -11 -11 -16 -11 -5 0 -4 6 3 14 14 16 24 13 13 -3z m115 -6 c-7
-9 -15 -13 -18 -10 -3 2 1 11 8 20 7 9 15 13 18 10 3 -2 -1 -11 -8 -20z m235
15 c3 -5 1 -10 -4 -10 -6 0 -11 5 -11 10 0 6 2 10 4 10 3 0 8 -4 11 -10z
m-1564 -17 c13 -16 12 -17 -3 -4 -10 7 -18 15 -18 17 0 8 8 3 21 -13z m1119 7
c0 -5 -2 -10 -4 -10 -3 0 -8 5 -11 10 -3 6 -1 10 4 10 6 0 11 -4 11 -10z m245
0 c3 -5 1 -10 -4 -10 -6 0 -11 5 -11 10 0 6 2 10 4 10 3 0 8 -4 11 -10z m499
-14 c-3 -9 -10 -16 -15 -16 -5 0 -4 9 3 20 14 22 21 20 12 -4z m36 14 c0 -5
-5 -10 -11 -10 -5 0 -7 5 -4 10 3 6 8 10 11 10 2 0 4 -4 4 -10z m-1148 -22
c-7 -7 -12 -8 -12 -2 0 14 12 26 19 19 2 -3 -1 -11 -7 -17z m353 -7 c-6 -5
-25 10 -25 20 0 5 6 4 14 -3 8 -7 12 -15 11 -17z m415 18 c0 -5 -9 -9 -20 -9
-11 0 -20 4 -20 8 0 4 9 8 20 9 11 1 20 -2 20 -8z m1351 -7 c-7 -2 -18 1 -23
6 -8 8 -4 9 13 5 13 -4 18 -8 10 -11z m79 14 c0 -2 -7 -6 -15 -10 -8 -3 -15
-1 -15 4 0 6 7 10 15 10 8 0 15 -2 15 -4z m1017 -2 c-3 -3 -12 -4 -19 -1 -8 3
-5 6 6 6 11 1 17 -2 13 -5z m-3147 -19 c-7 -9 -19 -14 -27 -11 -7 3 -13 -1
-13 -9 0 -8 -5 -15 -10 -15 -7 0 -7 7 0 21 7 12 18 18 26 15 8 -3 14 -1 14 4
0 6 5 10 11 10 8 0 7 -5 -1 -15z m424 0 c-4 -8 -11 -12 -16 -9 -6 4 -5 10 3
15 19 12 19 11 13 -6z m156 5 c0 -5 -5 -10 -11 -10 -5 0 -7 5 -4 10 3 6 8 10
11 10 2 0 4 -4 4 -10z m370 -56 c-6 -15 -13 -24 -16 -21 -3 3 0 16 7 28 9 17
9 24 0 27 -6 2 -11 11 -11 20 0 13 3 12 15 -5 12 -17 13 -28 5 -49z m2250 56
c0 -5 -2 -10 -4 -10 -3 0 -8 5 -11 10 -3 6 -1 10 4 10 6 0 11 -4 11 -10z
m-5770 -9 c0 -5 -7 -12 -16 -15 -14 -5 -15 -4 -4 9 14 17 20 19 20 6z m2427 3
c-3 -3 -12 -4 -19 -1 -8 3 -5 6 6 6 11 1 17 -2 13 -5z m618 -4 c3 -5 1 -10 -4
-10 -6 0 -11 5 -11 10 0 6 2 10 4 10 3 0 8 -4 11 -10z m174 -11 c-11 -8 -10
-12 5 -24 18 -14 18 -15 2 -15 -9 0 -14 -4 -11 -10 3 -5 1 -10 -5 -10 -7 0 -9
8 -5 20 4 12 2 20 -5 20 -8 0 -8 6 0 20 6 11 16 18 22 14 7 -4 6 -10 -3 -15z
m75 6 c-7 -16 -24 -21 -24 -6 0 8 7 13 27 20 1 1 0 -6 -3 -14z m365 -7 c-15
-15 -61 -19 -52 -5 3 4 10 6 16 4 7 -2 18 3 26 10 7 8 16 12 18 9 3 -3 -1 -11
-8 -18z m-914 2 c-3 -5 -11 -10 -16 -10 -6 0 -7 5 -4 10 3 6 11 10 16 10 6 0
7 -4 4 -10z m38 -14 c-10 -13 -19 -23 -21 -21 -5 5 22 45 31 45 4 0 0 -11 -10
-24z m541 7 c-5 -16 -3 -15 10 1 20 25 29 17 10 -8 -10 -15 -17 -17 -25 -9 -6
6 -8 16 -5 22 11 17 16 13 10 -6z m82 -10 c-7 -7 -26 7 -26 19 0 6 6 6 15 -2
9 -7 13 -15 11 -17z m64 23 c0 -2 -7 -7 -16 -10 -8 -3 -12 -2 -9 4 6 10 25 14
25 6z m1567 -11 c0 -8 -6 -15 -14 -15 -17 0 -17 17 0 23 6 3 12 6 13 6 0 1 1
-6 1 -14z m53 11 c0 -3 -4 -8 -10 -11 -5 -3 -10 -1 -10 4 0 6 5 11 10 11 6 0
10 -2 10 -4z m-5260 -16 c0 -5 -5 -10 -11 -10 -5 0 -7 5 -4 10 3 6 8 10 11 10
2 0 4 -4 4 -10z m200 0 c0 -5 -4 -10 -10 -10 -5 0 -10 5 -10 10 0 6 5 10 10
10 6 0 10 -4 10 -10z m2365 0 c-3 -5 -12 -10 -18 -10 -7 0 -6 4 3 10 19 12 23
12 15 0z m55 0 c0 -5 -2 -10 -4 -10 -3 0 -8 5 -11 10 -3 6 -1 10 4 10 6 0 11
-4 11 -10z m670 6 c0 -11 -19 -15 -25 -6 -3 5 1 10 9 10 9 0 16 -2 16 -4z
m158 -16 c19 0 23 -3 15 -11 -13 -13 -53 5 -52 24 0 9 2 9 6 0 2 -7 16 -13 31
-13z m-398 6 c0 -2 -7 -9 -15 -16 -13 -11 -14 -10 -9 4 5 14 24 23 24 12z
m500 -22 c0 -8 -4 -12 -10 -9 -5 3 -10 13 -10 21 0 8 5 12 10 9 6 -3 10 -13
10 -21z m120 22 c0 -3 -4 -8 -10 -11 -5 -3 -10 -1 -10 4 0 6 5 11 10 11 6 0
10 -2 10 -4z m1490 -11 c0 -8 -4 -15 -10 -15 -5 0 -7 7 -4 15 4 8 8 15 10 15
2 0 4 -7 4 -15z m-5194 -4 c-7 -11 -66 -20 -66 -10 0 7 24 14 58 18 7 0 11 -3
8 -8z m2768 -3 c-3 -4 -9 -8 -15 -8 -5 0 -9 4 -9 8 0 5 7 9 15 9 8 0 12 -4 9
-9z m382 -15 c-10 -10 -19 5 -10 18 6 11 8 11 12 0 2 -7 1 -15 -2 -18z m-2917
8 c9 -6 6 -8 -13 -8 -14 0 -23 3 -20 8 7 11 15 11 33 0z m85 -3 c-3 -4 0 -8 7
-8 7 0 10 -3 6 -6 -3 -3 -16 1 -28 9 -22 16 -22 16 -1 14 11 0 18 -5 16 -9z
m1936 8 c0 -3 -4 -8 -10 -11 -5 -3 -10 -1 -10 4 0 6 5 11 10 11 6 0 10 -2 10
-4z m310 -5 c0 -5 -9 -7 -20 -4 -11 3 -20 7 -20 9 0 2 9 4 20 4 11 0 20 -4 20
-9z m245 -1 c-3 -5 -11 -10 -16 -10 -6 0 -7 5 -4 10 3 6 11 10 16 10 6 0 7 -4
4 -10z m987 -4 c7 4 8 2 4 -5 -9 -13 -26 -5 -25 12 0 9 2 8 6 -1 2 -6 10 -9
15 -6z m1030 -18 c-8 -8 -9 -4 -5 13 4 13 8 18 11 10 2 -7 -1 -18 -6 -23z
m-4732 12 c0 -5 -5 -10 -11 -10 -5 0 -7 5 -4 10 3 6 8 10 11 10 2 0 4 -4 4
-10z m32 -18 c-12 -4 -5 -32 9 -32 5 0 9 7 9 15 0 8 5 15 11 15 6 0 8 -7 5
-16 -3 -9 -6 -19 -6 -23 0 -4 -7 -8 -15 -8 -8 0 -15 4 -15 8 0 4 -10 4 -22 1
l-23 -6 25 -10 c25 -11 39 -36 20 -36 -5 0 -10 4 -10 9 0 5 -10 7 -21 4 -20
-6 -21 -3 -15 31 5 26 4 36 -3 31 -6 -3 -11 -1 -11 4 0 16 16 13 36 -6 17 -17
18 -17 11 1 -4 10 -2 25 5 33 10 12 13 12 17 2 2 -7 -1 -15 -7 -17z m1748 18
c0 -5 -2 -10 -4 -10 -3 0 -8 5 -11 10 -3 6 -1 10 4 10 6 0 11 -4 11 -10z
m1415 0 c-3 -5 -11 -10 -16 -10 -6 0 -7 5 -4 10 3 6 11 10 16 10 6 0 7 -4 4
-10z m249 1 c3 -5 0 -11 -7 -14 -8 -3 -14 1 -14 9 0 16 13 19 21 5z m146 -1
c0 -13 -11 -13 -30 0 -12 8 -11 10 8 10 12 0 22 -4 22 -10z m232 -7 c-6 -3
-10 -9 -7 -14 4 -5 -1 -6 -10 -3 -14 6 -14 8 2 19 10 8 20 11 23 8 3 -3 -1 -8
-8 -10z m-1315 -19 c2 -13 1 -15 -4 -4 -3 8 -11 19 -17 23 -7 6 -6 7 4 4 8 -2
16 -12 17 -23z m118 17 c7 -12 -15 -61 -27 -61 -5 0 -2 10 6 22 20 29 20 42 0
34 -8 -3 -12 -2 -9 4 8 13 22 13 30 1z m115 -1 c0 -5 -5 -10 -11 -10 -5 0 -7
5 -4 10 3 6 8 10 11 10 2 0 4 -4 4 -10z m660 0 c12 -8 11 -10 -7 -10 -12 0
-25 5 -28 10 -8 13 15 13 35 0z m330 0 c0 -5 -5 -10 -11 -10 -5 0 -7 5 -4 10
3 6 8 10 11 10 2 0 4 -4 4 -10z m-1175 -10 c-3 -5 -12 -10 -18 -10 -7 0 -6 4
3 10 19 12 23 12 15 0z m555 0 c0 -5 -9 -14 -20 -20 -14 -7 -20 -7 -20 0 0 5
7 10 15 10 8 0 15 5 15 10 0 6 2 10 5 10 3 0 5 -4 5 -10z m150 -5 c-7 -8 -18
-15 -24 -15 -6 0 -2 7 8 15 25 19 32 19 16 0z m-3159 -9 c-13 -16 2 -32 19
-21 6 3 10 2 10 -3 0 -17 -28 -21 -40 -6 -10 11 -10 17 0 29 7 8 15 15 17 15
3 0 0 -6 -6 -14z m39 4 c0 -5 -2 -10 -4 -10 -3 0 -8 5 -11 10 -3 6 -1 10 4 10
6 0 11 -4 11 -10z m1822 -22 c-8 -8 -9 -4 -5 13 4 13 8 18 11 10 2 -7 -1 -18
-6 -23z m1223 22 c-27 -12 -43 -12 -25 0 8 5 22 9 30 9 10 0 8 -3 -5 -9z m164
-6 c2 -2 -10 -4 -27 -4 -18 0 -32 5 -32 10 0 9 47 4 59 -6z m159 -13 c-7 -9
-14 -18 -15 -20 -2 -3 -2 7 -1 21 1 17 7 24 15 21 11 -4 11 -9 1 -22z m182 14
c0 -8 -5 -15 -11 -15 -6 0 -17 -7 -26 -15 -16 -16 -33 -12 -33 8 0 9 2 9 8 0
5 -8 13 -5 27 12 23 28 35 31 35 10z m-1016 -3 c2 -4 -4 -9 -15 -9 -11 -1 -17
2 -14 8 7 11 22 12 29 1z m746 -9 c0 -7 12 -19 28 -27 15 -8 22 -15 16 -16 -6
0 -23 9 -38 21 -14 11 -30 18 -35 15 -5 -3 -14 0 -20 8 -9 10 -5 13 19 12 16
-1 30 -6 30 -13z m135 -2 c-3 -6 -11 -11 -17 -11 -6 0 -6 6 2 15 14 17 26 13
15 -4z m195 14 c0 -2 -9 -9 -19 -15 -14 -7 -22 -7 -27 2 -4 6 -3 8 2 5 6 -3
16 -2 24 4 17 10 20 11 20 4z m-1900 -9 c0 -11 -19 -15 -25 -6 -3 5 1 10 9 10
9 0 16 -2 16 -4z m160 -11 c7 -9 8 -15 2 -15 -5 0 -12 7 -16 15 -3 8 -4 15 -2
15 2 0 9 -7 16 -15z m260 11 c0 -3 -4 -8 -10 -11 -5 -3 -10 -1 -10 4 0 6 5 11
10 11 6 0 10 -2 10 -4z m310 -6 c0 -5 -4 -10 -10 -10 -5 0 -10 5 -10 10 0 6 5
10 10 10 6 0 10 -4 10 -10z m545 0 c-3 -5 -12 -10 -18 -10 -7 0 -6 4 3 10 19
12 23 12 15 0z m349 -6 c6 -15 4 -15 -11 -3 -10 7 -20 15 -22 16 -2 2 3 3 11
3 9 0 19 -7 22 -16z m131 8 c-6 -4 -16 -19 -24 -34 -8 -15 -18 -25 -23 -22
-14 9 -9 24 9 24 9 0 13 3 10 7 -9 8 12 33 27 33 7 0 7 -3 1 -8z m-362 -17
c-3 -9 -8 -14 -10 -11 -3 3 -2 9 2 15 9 16 15 13 8 -4z m525 1 c-7 -8 -15 -12
-17 -11 -5 6 10 25 20 25 5 0 4 -6 -3 -14z m-3578 -18 c0 -5 -9 -4 -20 2 -11
6 -20 12 -20 14 0 2 9 2 20 -1 11 -3 20 -9 20 -15z m2365 12 c3 -6 -1 -7 -9
-4 -18 7 -21 14 -7 14 6 0 13 -4 16 -10z m765 6 c0 -3 -4 -8 -10 -11 -5 -3
-10 -1 -10 4 0 6 5 11 10 11 6 0 10 -2 10 -4z m1730 -6 c0 -5 -2 -10 -4 -10
-3 0 -8 5 -11 10 -3 6 -1 10 4 10 6 0 11 -4 11 -10z m117 4 c-3 -3 -12 -4 -19
-1 -8 3 -5 6 6 6 11 1 17 -2 13 -5z m-3107 -14 c0 -5 -5 -10 -11 -10 -5 0 -7
5 -4 10 3 6 8 10 11 10 2 0 4 -4 4 -10z m1455 -9 c-3 -6 -11 -11 -16 -11 -5 0
-4 6 3 14 14 16 24 13 13 -3z m162 -13 c-3 -7 -5 -2 -5 12 0 14 2 19 5 13 2
-7 2 -19 0 -25z m478 17 c33 -9 145 -61 250 -116 207 -110 201 -106 192 -115
-3 -3 -46 17 -95 45 -137 78 -292 149 -365 167 -37 9 -64 21 -61 25 7 12 10
12 79 -6z m-4071 -10 c-7 -18 0 -19 25 -3 15 9 25 9 43 0 22 -12 21 -12 -9 -8
-19 3 -33 1 -35 -6 -6 -16 -38 -2 -38 17 0 8 4 15 10 15 5 0 7 -7 4 -15z
m1754 -10 c-3 -3 -9 2 -12 12 -6 14 -5 15 5 6 7 -7 10 -15 7 -18z m782 -3 c0
-8 -1 -13 -3 -11 -1 2 -9 12 -16 22 -12 15 -12 17 3 11 9 -3 16 -13 16 -22z
m-2396 2 c3 -8 2 -12 -4 -9 -6 3 -10 10 -10 16 0 14 7 11 14 -7z m3165 -31 c1
-7 -3 -13 -9 -13 -5 0 -7 7 -4 15 4 8 1 15 -5 15 -6 0 -11 -5 -11 -11 0 -5 -4
-7 -10 -4 -15 9 -12 -2 6 -30 9 -14 12 -25 8 -25 -5 0 -17 14 -26 30 -17 30
-17 31 7 40 14 5 25 15 26 22 1 15 17 -21 18 -39z m236 31 c-9 -9 -18 -14 -21
-11 -9 9 6 27 22 27 13 0 13 -2 -1 -16z m115 6 c0 -5 -5 -10 -11 -10 -5 0 -7
5 -4 10 3 6 8 10 11 10 2 0 4 -4 4 -10z m-632 -25 c-3 -3 -9 2 -12 12 -6 14
-5 15 5 6 7 -7 10 -15 7 -18z m322 21 c0 -3 -4 -8 -10 -11 -5 -3 -10 -1 -10 4
0 6 5 11 10 11 6 0 10 -2 10 -4z m-620 -16 c0 -5 -8 -10 -17 -10 -15 0 -16 2
-3 10 19 12 20 12 20 0z m890 -13 c8 2 4 -5 -9 -17 -23 -20 -25 -20 -41 -3
-23 24 -6 51 19 30 9 -8 23 -12 31 -10z m1505 13 c3 -5 1 -10 -4 -10 -6 0 -11
5 -11 10 0 6 2 10 4 10 3 0 8 -4 11 -10z m-3055 -10 c0 -5 -4 -10 -10 -10 -5
0 -10 5 -10 10 0 6 5 10 10 10 6 0 10 -4 10 -10z m-2070 -7 c0 -5 -11 -8 -24
-8 -13 0 -22 3 -19 8 2 4 13 7 24 7 10 0 19 -3 19 -7z m2487 -15 c-3 -8 -6 -5
-6 6 -1 11 2 17 5 13 3 -3 4 -12 1 -19z m35 -3 c3 -13 1 -22 -3 -19 -9 5 -13
44 -5 44 2 0 6 -11 8 -25z m538 5 c-6 -11 -12 -20 -14 -20 -2 0 -2 9 1 20 3
11 9 20 15 20 5 0 4 -9 -2 -20z m150 11 c0 -6 -4 -13 -10 -16 -5 -3 -10 1 -10
9 0 9 5 16 10 16 6 0 10 -4 10 -9z m300 -1 c0 -5 -4 -10 -10 -10 -5 0 -10 5
-10 10 0 6 5 10 10 10 6 0 10 -4 10 -10z m-3437 -7 c-7 -2 -21 -2 -30 0 -10 3
-4 5 12 5 17 0 24 -2 18 -5z m42 -9 c-9 -9 -19 -13 -23 -10 -3 4 0 11 8 16 24
15 33 11 15 -6z m2025 -4 c0 -5 -4 -10 -10 -10 -5 0 -10 5 -10 10 0 6 5 10 10
10 6 0 10 -4 10 -10z m550 -6 c0 -8 -5 -12 -10 -9 -6 4 -8 11 -5 16 9 14 15
11 15 -7z m110 12 c0 -2 -8 -10 -17 -17 -16 -13 -17 -12 -4 4 13 16 21 21 21
13z m35 -6 c-3 -5 -11 -10 -16 -10 -6 0 -7 5 -4 10 3 6 11 10 16 10 6 0 7 -4
4 -10z m315 0 c0 -5 -5 -10 -11 -10 -5 0 -7 5 -4 10 3 6 8 10 11 10 2 0 4 -4
4 -10z m87 -15 c-7 -17 -37 -21 -37 -5 0 6 7 10 15 10 8 0 15 5 15 12 0 6 3 9
6 5 4 -3 4 -13 1 -22z m197 10 c-4 -8 -12 -15 -20 -15 -20 0 -17 18 4 23 9 3
18 5 19 6 1 0 0 -6 -3 -14z m51 5 c3 -5 -1 -10 -10 -10 -9 0 -13 5 -10 10 3 6
8 10 10 10 2 0 7 -4 10 -10z m1725 0 c0 -5 -2 -10 -4 -10 -3 0 -8 5 -11 10 -3
6 -1 10 4 10 6 0 11 -4 11 -10z m70 0 c0 -5 -2 -10 -4 -10 -3 0 -8 5 -11 10
-3 6 -1 10 4 10 6 0 11 -4 11 -10z m-5336 -12 c-3 -4 -9 -8 -15 -8 -5 0 -9 4
-9 8 0 5 7 9 15 9 8 0 12 -4 9 -9z m85 8 c-12 -10 -60 -16 -54 -6 3 5 18 10
32 10 15 0 24 -2 22 -4z m2196 -6 c-3 -5 -12 -10 -18 -10 -7 0 -6 4 3 10 19
12 23 12 15 0z m795 6 c0 -2 -7 -7 -16 -10 -8 -3 -12 -2 -9 4 6 10 25 14 25 6z
m320 0 c0 -2 -7 -9 -15 -16 -12 -10 -15 -10 -15 4 0 9 7 16 15 16 8 0 15 -2
15 -4z m227 -9 c3 -4 -8 -7 -25 -7 -18 0 -32 4 -32 9 0 11 46 8 57 -2z m1470
7 c-3 -3 -12 -4 -19 -1 -8 3 -5 6 6 6 11 1 17 -2 13 -5z m36 -9 c-3 -9 -8 -14
-10 -11 -3 3 -2 9 2 15 9 16 15 13 8 -4z m-2210 -21 c-6 -17 -23 -9 -23 11 0
8 6 12 14 9 8 -3 12 -12 9 -20z m-303 1 c0 -8 -2 -15 -4 -15 -2 0 -6 7 -10 15
-3 8 -1 15 4 15 6 0 10 -7 10 -15z m45 -3 c-3 -3 -11 0 -18 7 -9 10 -8 11 6 5
10 -3 15 -9 12 -12z m70 8 c3 -5 1 -10 -4 -10 -6 0 -11 5 -11 10 0 6 2 10 4
10 3 0 8 -4 11 -10z m-2735 -15 c0 -12 -19 -12 -23 0 -4 9 -1 12 9 8 7 -3 14
-7 14 -8z m60 1 c-7 -7 -13 -7 -20 0 -6 6 -3 10 10 10 13 0 16 -4 10 -10z
m107 8 c-3 -3 -12 -4 -19 -1 -8 3 -5 6 6 6 11 1 17 -2 13 -5z m2796 -14 c3
-11 1 -20 -4 -20 -5 0 -9 2 -9 4 0 2 -3 11 -6 20 -3 9 -2 16 4 16 5 0 12 -9
15 -20z m74 14 c-3 -3 -12 -4 -19 -1 -8 3 -5 6 6 6 11 1 17 -2 13 -5z m33 -4
c0 -5 -5 -10 -11 -10 -5 0 -7 5 -4 10 3 6 8 10 11 10 2 0 4 -4 4 -10z m57 4
c-3 -3 -12 -4 -19 -1 -8 3 -5 6 6 6 11 1 17 -2 13 -5z m-3440 -51 c-3 -10 -5
-2 -5 17 0 19 2 27 5 18 2 -10 2 -26 0 -35z m3176 31 c-5 -13 -2 -15 18 -9 19
6 21 5 13 -5 -16 -16 -55 -3 -47 16 3 7 9 14 14 14 4 0 6 -7 2 -16z m488 7
c-7 -5 -10 -14 -7 -20 4 -6 2 -11 -3 -11 -12 0 -15 23 -4 33 3 4 11 7 17 7 6
0 5 -4 -3 -9z m259 5 c0 -3 -4 -8 -10 -11 -5 -3 -10 -1 -10 4 0 6 5 11 10 11
6 0 10 -2 10 -4z m-3525 -16 c3 -5 1 -10 -4 -10 -6 0 -11 5 -11 10 0 6 2 10 4
10 3 0 8 -4 11 -10z m2303 -8 c-9 -10 -13 -10 -19 -1 -4 7 -14 9 -24 6 -9 -4
-13 -3 -10 3 3 5 19 8 34 7 23 -2 27 -5 19 -15z m262 14 c0 -3 -4 -8 -10 -11
-5 -3 -10 -1 -10 4 0 6 5 11 10 11 6 0 10 -2 10 -4z m40 0 c0 -3 -4 -8 -10
-11 -5 -3 -10 -1 -10 4 0 6 5 11 10 11 6 0 10 -2 10 -4z m480 -6 c0 -5 -5 -10
-11 -10 -5 0 -7 5 -4 10 3 6 8 10 11 10 2 0 4 -4 4 -10z m-675 -10 c-3 -5 -11
-10 -16 -10 -6 0 -7 5 -4 10 3 6 11 10 16 10 6 0 7 -4 4 -10z m735 -5 c9 -10
9 -15 1 -15 -6 0 -11 5 -11 11 0 8 -5 8 -15 -1 -12 -10 -15 -10 -15 4 0 20 24
21 40 1z m217 9 c-3 -3 -12 -4 -19 -1 -8 3 -5 6 6 6 11 1 17 -2 13 -5z m1526
-5 c12 -6 54 -32 92 -57 39 -25 87 -57 108 -71 59 -38 128 -102 124 -115 -4
-12 -47 -18 -47 -7 0 4 -21 17 -47 29 -27 13 -66 33 -88 46 -42 25 -94 52
-171 87 -54 26 -61 39 -39 73 19 28 35 32 68 15z m-4843 -9 c0 -5 -5 -10 -11
-10 -5 0 -7 5 -4 10 3 6 8 10 11 10 2 0 4 -4 4 -10z m2050 0 c0 -5 -5 -10 -11
-10 -5 0 -7 5 -4 10 3 6 8 10 11 10 2 0 4 -4 4 -10z m246 -15 c-14 -14 -16
-14 -16 -2 0 9 6 17 13 20 19 7 21 -1 3 -18z m514 21 c0 -3 -4 -8 -10 -11 -5
-3 -10 -1 -10 4 0 6 5 11 10 11 6 0 10 -2 10 -4z m65 -6 c3 -6 -1 -7 -9 -4
-18 7 -21 14 -7 14 6 0 13 -4 16 -10z m505 1 c0 -5 -9 -11 -20 -14 -20 -5 -26
3 -13 16 9 10 33 8 33 -2z m-3509 -24 c-10 -9 -11 -8 -5 6 3 10 9 15 12 12 3
-3 0 -11 -7 -18z m69 13 c0 -5 -2 -10 -4 -10 -3 0 -8 5 -11 10 -3 6 -1 10 4
10 6 0 11 -4 11 -10z m120 -2 c0 -4 -4 -8 -9 -8 -6 0 -12 4 -15 8 -3 5 1 9 9
9 8 0 15 -4 15 -9z m2640 8 c0 -3 -4 -8 -10 -11 -5 -3 -10 -1 -10 4 0 6 5 11
10 11 6 0 10 -2 10 -4z m138 -21 c-3 -3 -9 2 -12 12 -6 14 -5 15 5 6 7 -7 10
-15 7 -18z m126 10 c-4 -8 -13 -15 -20 -15 -12 0 -12 3 -2 15 17 19 29 19 22
0z m-704 -10 c8 -9 8 -15 2 -15 -6 0 -12 6 -15 13 -3 9 -7 9 -20 -2 -10 -7
-17 -9 -17 -3 0 9 14 19 31 21 4 1 12 -6 19 -14z m480 5 c0 -5 -5 -10 -11 -10
-5 0 -7 5 -4 10 3 6 8 10 11 10 2 0 4 -4 4 -10z m-405 -10 c-3 -5 -11 -10 -16
-10 -6 0 -7 5 -4 10 3 6 11 10 16 10 6 0 7 -4 4 -10z m120 0 c3 -5 1 -10 -4
-10 -6 0 -11 5 -11 10 0 6 2 10 4 10 3 0 8 -4 11 -10z m335 0 c0 -5 -2 -10 -4
-10 -3 0 -8 5 -11 10 -3 6 -1 10 4 10 6 0 11 -4 11 -10z m306 -2 c4 -7 4 -10
-1 -6 -4 4 -15 2 -24 -5 -14 -11 -14 -10 -2 6 16 20 18 21 27 5z m198 -9 c8
-12 19 -18 25 -15 7 4 8 1 5 -8 -8 -22 -21 -20 -29 4 -3 11 -13 20 -21 20 -8
0 -14 5 -14 10 0 17 18 11 34 -11z m-709 2 c3 -5 2 -12 -3 -15 -5 -3 -9 1 -9
9 0 17 3 19 12 6z m-2945 -11 c0 -5 -5 -10 -12 -10 -6 0 -32 -14 -58 -30 -26
-17 -107 -51 -181 -76 -74 -25 -150 -53 -169 -61 -55 -23 -331 -117 -604 -204
-263 -84 -371 -106 -387 -77 -5 9 -29 19 -54 22 -25 4 -45 11 -45 16 0 16 74
69 117 84 24 8 43 14 43 13 0 -2 -9 -20 -20 -41 -14 -29 -17 -43 -9 -58 9 -16
17 -18 57 -12 78 11 395 108 657 200 88 30 178 62 200 69 170 58 307 110 349
133 67 36 116 50 116 32z m2320 6 c0 -3 -4 -8 -10 -11 -5 -3 -10 -1 -10 4 0 6
5 11 10 11 6 0 10 -2 10 -4z m275 -6 c-3 -5 -2 -10 3 -10 6 0 13 -7 16 -16 6
-15 4 -15 -11 -3 -10 7 -20 14 -22 16 -4 2 9 23 15 23 3 0 2 -4 -1 -10z m125
0 c0 -5 -2 -10 -4 -10 -3 0 -8 5 -11 10 -3 6 -1 10 4 10 6 0 11 -4 11 -10z
m333 -7 c-3 -7 -6 -13 -8 -13 -2 0 -5 6 -8 13 -3 8 1 14 8 14 7 0 11 -6 8 -14z
m67 13 c0 -11 -19 -15 -25 -6 -3 5 1 10 9 10 9 0 16 -2 16 -4z m91 -19 c-10
-9 -11 -8 -5 6 3 10 9 15 12 12 3 -3 0 -11 -7 -18z m89 13 c0 -5 -4 -10 -10
-10 -5 0 -10 5 -10 10 0 6 5 10 10 10 6 0 10 -4 10 -10z m60 -6 c0 -2 -9 -4
-20 -4 -11 0 -20 4 -20 9 0 5 9 7 20 4 11 -3 20 -7 20 -9z m2170 1 c0 -8 -7
-15 -15 -15 -13 0 -14 3 -3 15 16 18 18 18 18 0z m-2977 -16 c-4 -16 -8 -17
-14 -7 -13 19 -11 28 5 28 9 0 12 -7 9 -21z m282 11 c-28 -12 -37 -12 -30 0 3
6 16 10 28 9 21 0 21 -1 2 -9z m575 -6 c0 -2 -7 -4 -15 -4 -8 0 -15 4 -15 10
0 5 7 7 15 4 8 -4 15 -8 15 -10z m160 6 c0 -5 -7 -10 -16 -10 -8 0 -12 5 -9
10 3 6 10 10 16 10 5 0 9 -4 9 -10z m-900 -15 c-7 -9 -15 -13 -17 -11 -7 7 7
26 19 26 6 0 6 -6 -2 -15z m84 6 c3 -5 -2 -15 -12 -22 -15 -12 -16 -12 -5 2 7
9 10 19 6 22 -3 4 -4 7 0 7 3 0 8 -4 11 -9z m1026 5 c0 -3 -4 -8 -10 -11 -5
-3 -10 -1 -10 4 0 6 5 11 10 11 6 0 10 -2 10 -4z m-3795 -16 c-3 -5 -16 -15
-28 -21 -19 -9 -19 -8 3 10 28 23 34 26 25 11z m3385 6 c0 -3 -4 -8 -10 -11
-5 -3 -10 -1 -10 4 0 6 5 11 10 11 6 0 10 -2 10 -4z m275 -6 c3 -5 -1 -10 -10
-10 -9 0 -13 5 -10 10 3 6 8 10 10 10 2 0 7 -4 10 -10z m-1151 -15 c-4 -8 -14
-15 -23 -15 -14 1 -13 3 3 15 25 19 27 19 20 0z m106 -7 c0 -13 -23 -5 -28 10
-2 7 2 10 12 6 9 -3 16 -11 16 -16z m190 18 c0 -3 -4 -8 -10 -11 -5 -3 -10 -1
-10 4 0 6 5 11 10 11 6 0 10 -2 10 -4z m170 -6 c0 -5 -2 -10 -4 -10 -3 0 -8 5
-11 10 -3 6 -1 10 4 10 6 0 11 -4 11 -10z m555 -4 c-11 -8 -23 -12 -28 -9 -13
8 3 23 26 23 20 0 20 0 2 -14z m285 -1 c0 -8 -4 -15 -10 -15 -5 0 -7 7 -4 15
4 8 8 15 10 15 2 0 4 -7 4 -15z m-1266 -16 c-6 -11 -24 -2 -24 11 0 5 7 7 15
4 8 -4 12 -10 9 -15z m381 11 c4 -6 -6 -10 -22 -9 -25 0 -26 1 -8 9 11 5 21 9
22 9 1 1 5 -3 8 -9z m490 0 c-3 -5 -10 -10 -16 -10 -5 0 -9 5 -9 10 0 6 7 10
16 10 8 0 12 -4 9 -10z m-715 -10 c0 -5 -2 -10 -4 -10 -3 0 -8 5 -11 10 -3 6
-1 10 4 10 6 0 11 -4 11 -10z m35 0 c3 -5 -1 -10 -10 -10 -9 0 -13 5 -10 10 3
6 8 10 10 10 2 0 7 -4 10 -10z m885 -12 c0 -6 -6 -5 -15 2 -8 7 -15 14 -15 16
0 2 7 1 15 -2 8 -4 15 -11 15 -16z m1294 -25 c45 -26 83 -48 85 -49 2 -2 -4
-15 -13 -29 l-17 -25 -37 19 c-43 22 -112 93 -112 116 0 22 5 20 94 -32z
m-7214 27 c-1 -16 -20 -31 -37 -28 -11 1 -27 -3 -36 -11 -15 -11 -17 -11 -17
2 0 9 -8 18 -17 21 -10 3 -6 4 9 2 16 -2 29 3 32 10 5 12 66 16 66 4z m5635 0
c-3 -5 -12 -10 -18 -10 -7 0 -6 4 3 10 19 12 23 12 15 0z m145 0 c0 -5 -4 -10
-10 -10 -5 0 -10 5 -10 10 0 6 5 10 10 10 6 0 10 -4 10 -10z m260 0 c0 -5 -4
-10 -10 -10 -5 0 -10 5 -10 10 0 6 5 10 10 10 6 0 10 -4 10 -10z m-1214 -12
c4 -6 3 -8 -4 -4 -5 3 -13 0 -15 -6 -3 -8 -6 -6 -6 5 -1 19 14 23 25 5z m304
-8 c0 -5 -2 -10 -4 -10 -3 0 -8 5 -11 10 -3 6 -1 10 4 10 6 0 11 -4 11 -10z
m536 -2 c4 -7 3 -8 -5 -4 -6 4 -18 2 -26 -4 -10 -9 -19 -9 -32 0 -16 10 -16
10 4 5 12 -3 24 -1 28 5 8 13 22 13 31 -2z m-5806 -18 c0 -11 -4 -20 -10 -20
-5 0 -10 9 -10 20 0 11 5 20 10 20 6 0 10 -9 10 -20z m3820 16 c0 -2 -7 -9
-15 -16 -13 -11 -14 -10 -9 4 5 14 24 23 24 12z m1828 -11 c115 -27 195 -83
258 -182 47 -74 43 -77 -9 -7 -52 71 -95 105 -185 147 -58 27 -81 32 -165 35
-86 4 -184 -7 -236 -25 -9 -4 -13 -3 -9 1 15 17 147 45 213 45 39 1 98 -6 133
-14z m287 5 c3 -5 1 -10 -4 -10 -6 0 -11 5 -11 10 0 6 2 10 4 10 3 0 8 -4 11
-10z m-5965 -10 c0 -5 -2 -10 -4 -10 -3 0 -8 5 -11 10 -3 6 -1 10 4 10 6 0 11
-4 11 -10z m3905 0 c3 -5 1 -10 -4 -10 -6 0 -11 5 -11 10 0 6 2 10 4 10 3 0 8
-4 11 -10z m1280 -8 c-3 -3 -11 0 -18 7 -9 10 -8 11 6 5 10 -3 15 -9 12 -12z
m934 1 c-7 -10 -14 -20 -16 -22 -1 -2 -1 6 0 18 1 11 8 21 15 21 12 0 12 -3 1
-17z m74 2 c-3 -9 -8 -14 -10 -11 -3 3 -2 9 2 15 9 16 15 13 8 -4z m-2428 -13
c-3 -3 -11 0 -18 7 -9 10 -8 11 6 5 10 -3 15 -9 12 -12z m2125 8 c0 -5 -7 -7
-15 -4 -8 4 -15 8 -15 10 0 2 7 4 15 4 8 0 15 -4 15 -10z m118 -15 c-3 -3 -9
2 -12 12 -6 14 -5 15 5 6 7 -7 10 -15 7 -18z m302 15 c0 -5 -4 -10 -10 -10 -5
0 -10 5 -10 10 0 6 5 10 10 10 6 0 10 -4 10 -10z m-250 -10 c0 -5 -4 -10 -10
-10 -5 0 -10 5 -10 10 0 6 5 10 10 10 6 0 10 -4 10 -10z m-3850 -14 c0 -7
-131 -49 -136 -43 -2 2 21 13 53 25 58 20 83 26 83 18z m2312 -28 c-8 -8 -9
-4 -5 13 4 13 8 18 11 10 2 -7 -1 -18 -6 -23z m3539 4 c-5 -10 -25 -37 -43
-59 -18 -22 -39 -49 -46 -59 -6 -11 1 8 17 41 29 59 68 111 78 102 2 -3 0 -14
-6 -25z m-3221 8 c0 -5 -4 -10 -10 -10 -5 0 -10 5 -10 10 0 6 5 10 10 10 6 0
10 -4 10 -10z m1047 -12 c-3 -8 -6 -5 -6 6 -1 11 2 17 5 13 3 -3 4 -12 1 -19z
m93 12 c0 -5 -7 -10 -16 -10 -8 0 -12 5 -9 10 3 6 10 10 16 10 5 0 9 -4 9 -10z
m57 4 c-3 -3 -12 -4 -19 -1 -8 3 -5 6 6 6 11 1 17 -2 13 -5z m-1120 -10 c-3
-3 -12 -4 -19 -1 -8 3 -5 6 6 6 11 1 17 -2 13 -5z m1398 -4 c3 -5 1 -10 -4
-10 -6 0 -11 5 -11 10 0 6 2 10 4 10 3 0 8 -4 11 -10z m-1507 -25 c-3 -3 -9 2
-12 12 -6 14 -5 15 5 6 7 -7 10 -15 7 -18z m1232 15 c0 -5 -5 -10 -11 -10 -5
0 -7 5 -4 10 3 6 8 10 11 10 2 0 4 -4 4 -10z m325 0 c-3 -5 -11 -10 -16 -10
-6 0 -7 5 -4 10 3 6 11 10 16 10 6 0 7 -4 4 -10z m-250 -10 c3 -5 1 -10 -4
-10 -6 0 -11 5 -11 10 0 6 2 10 4 10 3 0 8 -4 11 -10z m138 -15 c-3 -8 -9 -15
-14 -15 -10 0 -12 24 -3 33 11 11 24 -3 17 -18z m1877 -48 c-24 -65 -36 -76
-45 -46 -8 25 12 78 40 101 28 23 29 10 5 -55z m-3513 41 c-3 -8 -6 -5 -6 6
-1 11 2 17 5 13 3 -3 4 -12 1 -19z m1386 15 c-7 -2 -19 -2 -25 0 -7 3 -2 5 12
5 14 0 19 -2 13 -5z m207 -3 c0 -5 -2 -10 -4 -10 -3 0 -8 5 -11 10 -3 6 -1 10
4 10 6 0 11 -4 11 -10z m-1435 -10 c3 -5 1 -10 -4 -10 -6 0 -11 5 -11 10 0 6
2 10 4 10 3 0 8 -4 11 -10z m125 0 c0 -5 -2 -10 -4 -10 -3 0 -8 5 -11 10 -3 6
-1 10 4 10 6 0 11 -4 11 -10z m1090 -10 c13 -8 13 -10 -2 -10 -9 0 -20 5 -23
10 -8 13 5 13 25 0z m290 -4 c0 -3 -4 -8 -10 -11 -5 -3 -10 -1 -10 4 0 6 5 11
10 11 6 0 10 -2 10 -4z m-210 -10 c0 -2 -7 -7 -16 -10 -8 -3 -12 -2 -9 4 6 10
25 14 25 6z m185 -16 c3 -5 -3 -7 -12 -5 -10 2 -21 4 -25 4 -5 1 -8 5 -8 10 0
10 38 3 45 -9z m1910 -17 c-19 -46 -41 -71 -26 -30 14 37 30 67 36 67 3 0 -2
-17 -10 -37z m-2007 15 c14 -14 16 -28 3 -28 -5 0 -11 8 -13 17 -3 15 -4 15
-19 0 -9 -9 -19 -13 -23 -10 -5 6 22 32 35 33 3 0 10 -5 17 -12z m158 -14 c-4
-9 -9 -15 -11 -12 -3 3 -3 13 1 22 4 9 9 15 11 12 3 -3 3 -13 -1 -22z m1908 4
c-16 -53 -54 -128 -63 -128 -17 0 -13 36 7 72 10 18 24 43 31 56 6 12 16 22
22 22 6 0 7 -9 3 -22z m-2260 -2 c-3 -8 2 -16 13 -19 16 -4 16 -5 1 -6 -10 0
-22 8 -28 19 -8 16 -8 20 4 20 9 0 13 -6 10 -14z m241 4 c3 -6 -1 -7 -9 -4
-18 7 -21 14 -7 14 6 0 13 -4 16 -10z m-1299 -21 c-33 -11 -61 -17 -64 -15 -5
6 87 35 108 34 8 0 -12 -9 -44 -19z m1134 1 c0 -5 -7 -10 -15 -10 -8 0 -15 5
-15 10 0 6 7 10 15 10 8 0 15 -4 15 -10z m35 0 c3 -5 1 -10 -4 -10 -6 0 -11 5
-11 10 0 6 2 10 4 10 3 0 8 -4 11 -10z m197 -12 c-9 -9 -15 -9 -24 1 -11 11
-10 13 5 8 10 -4 17 -2 17 5 0 6 3 8 7 5 4 -4 1 -13 -5 -19z m1979 -1 c-10 -9
-11 -8 -5 6 3 10 9 15 12 12 3 -3 0 -11 -7 -18z m-1843 -7 c-7 -11 -18 -20
-25 -20 -7 0 -13 -4 -13 -10 0 -5 -5 -10 -12 -10 -6 0 1 14 17 30 33 34 51 40
33 10z m1889 -32 c-34 -59 -64 -94 -72 -86 -10 10 23 74 57 110 38 41 46 29
15 -24z m-2113 17 c-5 -21 -3 -24 12 -18 12 4 15 3 10 -5 -11 -18 -34 -14 -38
6 -2 9 1 22 7 29 15 18 16 16 9 -12z m-1357 9 c-3 -3 -12 -4 -19 -1 -8 3 -5 6
6 6 11 1 17 -2 13 -5z m1193 -4 c0 -5 -8 -10 -17 -10 -15 0 -16 2 -3 10 19 12
20 12 20 0z m127 4 c-3 -3 -12 -4 -19 -1 -8 3 -5 6 6 6 11 1 17 -2 13 -5z
m159 -2 c-3 -5 2 -18 12 -28 19 -21 22 -38 8 -51 -5 -4 -7 -3 -3 3 3 5 -3 23
-14 40 -21 33 -24 44 -8 44 5 0 8 -4 5 -8z m32 -17 c-3 -3 -9 2 -12 12 -6 14
-5 15 5 6 7 -7 10 -15 7 -18z m92 -5 c0 -4 -7 -11 -16 -14 -13 -5 -14 -4 -6 7
7 8 8 18 4 22 -4 5 -1 5 6 1 6 -4 12 -11 12 -16z m-7106 -5 c-4 -8 -11 -15
-16 -15 -6 0 -5 6 2 15 7 8 14 15 16 15 2 0 1 -7 -2 -15z m6956 5 c0 -5 -5
-10 -11 -10 -8 0 -7 -5 2 -16 10 -13 10 -17 -2 -25 -18 -11 -36 -11 -43 0 -4
5 2 7 12 4 15 -4 18 1 16 26 -1 21 3 31 12 31 8 0 14 -4 14 -10z m-40 -10 c0
-5 -4 -10 -10 -10 -5 0 -10 5 -10 10 0 6 5 10 10 10 6 0 10 -4 10 -10z m-93
-7 c-9 -2 -15 -8 -13 -11 2 -4 -2 -13 -10 -20 -17 -15 -18 -8 -4 19 6 10 18
18 28 18 16 -1 15 -2 -1 -6z m2253 2 c0 -9 -70 -114 -80 -120 -32 -20 10 87
44 110 20 15 36 19 36 10z m-2193 -47 c2 -28 1 -29 -11 -12 -8 10 -12 24 -9
31 9 23 18 14 20 -19z m186 17 c4 -8 2 -17 -4 -20 -5 -4 -7 -9 -5 -13 2 -4 -3
-13 -11 -21 -13 -12 -14 -11 -8 8 3 11 2 21 -3 21 -16 0 -23 -31 -11 -46 6 -8
8 -14 4 -14 -11 0 -45 41 -44 54 0 6 3 6 6 -1 7 -19 20 -16 26 7 3 11 11 19
19 18 7 -2 12 3 11 10 -4 17 14 15 20 -3z m47 5 c0 -5 -4 -10 -10 -10 -5 0
-10 5 -10 10 0 6 5 10 10 10 6 0 10 -4 10 -10z m-282 -30 c-7 -11 -16 -20 -20
-20 -11 0 -10 9 5 25 18 21 29 18 15 -5z m-4671 4 c-3 -3 -12 -4 -19 -1 -8 3
-5 6 6 6 11 1 17 -2 13 -5z m6993 3 c0 -2 -7 -17 -15 -33 -15 -31 -65 -84 -65
-70 0 20 54 106 67 106 7 0 13 -2 13 -3z m-2309 -38 c-9 -22 -10 -22 -10 -3
-1 11 2 24 6 27 12 12 14 0 4 -24z m97 5 c0 -13 -8 -24 -19 -27 -11 -3 -17
-11 -14 -19 4 -9 -4 -13 -24 -13 -16 -1 -27 3 -25 7 3 5 9 6 14 3 5 -3 15 3
22 15 7 11 19 20 27 20 11 0 10 4 -4 19 -16 19 -16 20 3 18 13 -1 20 -8 20
-23z m-162 1 c10 -8 15 -14 9 -14 -5 0 -19 6 -29 14 -11 8 -15 15 -10 15 6 0
19 -7 30 -15z m354 5 c0 -5 -2 -10 -4 -10 -3 0 -8 5 -11 10 -3 6 -1 10 4 10 6
0 11 -4 11 -10z m40 6 c0 -3 -4 -8 -10 -11 -5 -3 -10 -1 -10 4 0 6 5 11 10 11
6 0 10 -2 10 -4z m1898 -38 c-6 -18 -13 -27 -15 -21 -4 11 13 53 22 53 2 0 -1
-15 -7 -32z m142 21 c0 -14 -36 -66 -72 -103 -40 -42 -35 -23 13 51 39 59 59
77 59 52z m-2477 -13 c4 -9 14 -12 28 -9 15 4 20 3 15 -6 -4 -6 -11 -9 -16 -6
-5 3 -8 -4 -7 -15 1 -11 8 -20 17 -20 13 0 13 -1 0 -10 -15 -9 -30 6 -34 35
-1 7 -8 20 -15 29 -7 9 -9 16 -3 16 5 0 12 -6 15 -14z m147 4 c0 -5 -2 -10 -4
-10 -3 0 -8 5 -11 10 -3 6 -1 10 4 10 6 0 11 -4 11 -10z m185 -10 c3 -5 1 -10
-4 -10 -6 0 -11 5 -11 10 0 6 2 10 4 10 3 0 8 -4 11 -10z m140 0 c-3 -5 -11
-10 -16 -10 -6 0 -7 5 -4 10 3 6 11 10 16 10 6 0 7 -4 4 -10z m-385 -10 c0 -5
-7 -7 -15 -4 -8 4 -15 8 -15 10 0 2 7 4 15 4 8 0 15 -4 15 -10z m140 -10 c0
-5 -10 -10 -22 -9 -22 0 -22 1 -3 9 11 5 21 9 23 9 1 1 2 -3 2 -9z m40 0 c0
-5 -2 -10 -4 -10 -3 0 -8 5 -11 10 -3 6 -1 10 4 10 6 0 11 -4 11 -10z m144
-11 c-8 -14 -24 -10 -24 6 0 9 6 12 15 9 8 -4 12 -10 9 -15z m2146 9 c0 -17
-49 -78 -63 -78 -7 0 -18 -9 -25 -21 -7 -12 -16 -18 -19 -15 -9 8 50 96 70
102 9 3 17 10 17 15 0 5 5 9 10 9 6 0 10 -5 10 -12z m-2100 -2 c0 -2 -7 -7
-16 -10 -8 -3 -12 -2 -9 4 6 10 25 14 25 6z m-350 -21 c0 -2 -6 -5 -13 -8 -8
-3 -14 1 -14 8 0 7 6 11 14 8 7 -3 13 -6 13 -8z m230 -4 c-14 -27 -27 -34 -36
-20 -5 8 -3 9 5 5 8 -5 14 0 18 13 3 12 9 21 15 21 5 0 4 -9 -2 -19z m-70 -3
c0 -4 -7 -8 -15 -8 -8 0 -15 -5 -15 -11 0 -5 -5 -7 -12 -3 -9 6 -9 9 0 12 7 2
10 7 8 11 -3 4 4 7 15 7 10 0 19 -4 19 -8z m251 -32 c10 -21 10 -21 -6 -1 -9
11 -20 19 -24 18 -4 -1 -8 5 -8 12 0 19 24 1 38 -29z m2070 -21 c-23 -30 -44
-55 -46 -55 -3 0 -5 9 -5 20 0 21 76 107 86 97 4 -4 -12 -31 -35 -62z m-2426
35 c-3 -5 -11 -10 -16 -10 -6 0 -7 5 -4 10 3 6 11 10 16 10 6 0 7 -4 4 -10z
m211 -7 c13 -13 19 -14 22 -5 2 6 9 12 15 12 8 0 8 -3 -1 -12 -8 -8 -6 -16 10
-30 12 -10 17 -18 11 -18 -5 0 -23 11 -39 25 -16 14 -30 20 -32 15 -6 -17 -20
-11 -17 8 2 9 4 18 4 20 2 6 11 1 27 -15z m-266 -30 c-11 -17 -11 -17 -6 0 3
10 6 24 7 30 0 9 2 9 5 0 3 -7 0 -20 -6 -30z m107 10 c-8 -7 -37 9 -31 19 3 5
12 4 20 -3 8 -6 13 -14 11 -16z m-67 -3 c0 -5 -4 -10 -10 -10 -5 0 -10 5 -10
10 0 6 5 10 10 10 6 0 10 -4 10 -10z m56 -46 c-6 -7 -14 -10 -18 -7 -12 7 -9
-22 2 -33 7 -7 6 -11 -4 -11 -8 0 -13 4 -10 9 3 4 0 8 -6 8 -8 0 -8 6 0 20 6
11 8 20 4 20 -3 0 -1 7 6 15 9 11 15 11 24 2 9 -8 10 -15 2 -23z m95 19 c13
-16 12 -17 -3 -4 -10 7 -18 15 -18 17 0 8 8 3 21 -13z m-41 -3 c0 -5 -5 -10
-11 -10 -5 0 -7 5 -4 10 3 6 8 10 11 10 2 0 4 -4 4 -10z m-115 -10 c-3 -5 -12
-10 -18 -10 -7 0 -6 4 3 10 19 12 23 12 15 0z m125 -21 c-7 -11 -9 -28 -5 -37
5 -13 4 -14 -6 -5 -10 10 -10 18 -1 38 6 14 14 25 17 25 3 0 1 -9 -5 -21z
m-204 -40 c14 -28 24 -53 22 -55 -2 -2 -16 21 -31 51 -15 30 -25 55 -22 55 3
0 16 -23 31 -51z m544 41 c0 -5 -7 -7 -15 -4 -8 4 -15 8 -15 10 0 2 7 4 15 4
8 0 15 -4 15 -10z m-378 -7 c-6 -2 -9 -10 -6 -15 4 -7 2 -8 -4 -4 -18 11 -14
26 6 25 10 0 12 -3 4 -6z m181 -7 c3 -8 0 -16 -6 -19 -7 -3 -13 3 -13 14 0 22
12 25 19 5z m-71 -18 c-7 -7 -12 -8 -12 -2 0 14 12 26 19 19 2 -3 -1 -11 -7
-17z m225 16 c-3 -3 -12 -4 -19 -1 -8 3 -5 6 6 6 11 1 17 -2 13 -5z m-1458
-14 c47 -13 99 -66 107 -107 14 -75 -42 -133 -129 -133 -67 0 -114 24 -137 71
-24 46 -25 70 -6 108 30 57 95 81 165 61z m1131 -20 c0 -5 -7 -7 -15 -4 -8 4
-15 8 -15 10 0 2 7 4 15 4 8 0 15 -4 15 -10z m120 0 c0 -5 -5 -10 -11 -10 -5
0 -7 5 -4 10 3 6 8 10 11 10 2 0 4 -4 4 -10z m317 4 c-3 -3 -12 -4 -19 -1 -8
3 -5 6 6 6 11 1 17 -2 13 -5z m-353 -11 c-5 -5 -12 -12 -16 -18 -4 -6 -8 -2
-8 8 0 9 7 17 17 17 9 0 12 -3 7 -7z m91 -11 c-3 -3 -11 0 -18 7 -9 10 -8 11
6 5 10 -3 15 -9 12 -12z m30 -12 c-3 -5 -12 -10 -18 -10 -7 0 -6 4 3 10 19 12
23 12 15 0z m-95 -15 c0 -12 -19 -12 -23 0 -4 9 -1 12 9 8 7 -3 14 -7 14 -8z
m-80 -11 c0 -8 -5 -12 -10 -9 -6 4 -8 11 -5 16 9 14 15 11 15 -7z m145 6 c3
-5 1 -10 -4 -10 -6 0 -11 5 -11 10 0 6 2 10 4 10 3 0 8 -4 11 -10z m66 -7 c13
-16 12 -17 -3 -4 -10 7 -18 15 -18 17 0 8 8 3 21 -13z m242 -2 c-4 -3 -11 -10
-15 -15 -4 -4 -6 1 -5 12 1 12 6 18 15 15 7 -3 10 -9 5 -12z m-498 -1 c-3 -5
0 -10 7 -11 7 0 4 -4 -7 -9 -17 -7 -17 -9 -2 -9 9 -1 17 -5 17 -11 0 -14 -27
-12 -33 3 -4 12 9 47 19 47 3 0 2 -4 -1 -10z m-85 -72 c41 -85 51 -108 45
-108 -3 0 -25 41 -50 90 -25 50 -42 90 -38 90 5 0 24 -33 43 -72z m154 48 c-6
-16 -24 -23 -24 -8 0 10 22 33 27 28 2 -2 1 -11 -3 -20z m46 4 c0 -5 -2 -10
-4 -10 -3 0 -8 5 -11 10 -3 6 -1 10 4 10 6 0 11 -4 11 -10z m120 -6 c0 -8 -4
-12 -10 -9 -5 3 -10 10 -10 16 0 5 5 9 10 9 6 0 10 -7 10 -16z m-80 -8 c0 -3
-7 -12 -16 -20 -8 -9 -12 -20 -9 -26 10 -16 25 -12 25 8 0 13 2 14 9 3 6 -9 3
-20 -7 -32 -16 -19 -17 -19 -24 1 -4 11 -14 20 -23 20 -8 0 -15 5 -15 10 0 6
6 10 14 10 8 0 16 7 20 15 5 13 26 22 26 11z m40 0 c0 -3 -4 -8 -10 -11 -5 -3
-10 -1 -10 4 0 6 5 11 10 11 6 0 10 -2 10 -4z m188 -21 c-3 -3 -9 2 -12 12 -6
14 -5 15 5 6 7 -7 10 -15 7 -18z m-427 -22 c-12 -20 -14 -14 -5 12 4 9 9 14
11 11 3 -2 0 -13 -6 -23z m119 17 c0 -5 -4 -10 -10 -10 -5 0 -10 5 -10 10 0 6
5 10 10 10 6 0 10 -4 10 -10z m152 -1 c-13 -5 -21 -13 -18 -18 3 -5 -1 -14 -9
-21 -10 -9 -15 -9 -15 -1 0 6 5 11 10 11 6 0 9 3 9 8 -4 22 3 32 24 31 l22 0
-23 -10z m-222 -9 c0 -5 -5 -10 -11 -10 -5 0 -7 5 -4 10 3 6 8 10 11 10 2 0 4
-4 4 -10z m68 -16 c6 3 13 2 17 -4 7 -11 -28 -14 -39 -2 -4 4 -12 8 -17 8 -22
3 -23 5 -10 13 10 7 19 5 26 -6 7 -9 17 -13 23 -9z m337 6 c3 -5 1 -10 -4 -10
-6 0 -11 5 -11 10 0 6 2 10 4 10 3 0 8 -4 11 -10z m102 -12 c-3 -8 -6 -5 -6 6
-1 11 2 17 5 13 3 -3 4 -12 1 -19z m-2181 -17 c55 -25 74 -54 74 -114 0 -40
-5 -53 -28 -75 -15 -15 -36 -32 -47 -38 -21 -12 -35 21 152 -349 44 -88 93
-189 108 -225 15 -36 71 -155 125 -265 227 -462 300 -629 300 -684 0 -25 -7
-32 -72 -61 -156 -69 -475 -170 -540 -170 -36 0 -44 -20 -27 -67 20 -52 40
-61 76 -35 16 11 110 48 209 82 98 34 235 84 304 112 265 107 367 146 430 164
36 10 101 33 145 51 44 18 126 45 182 60 102 28 103 28 103 58 0 53 -7 55
-113 29 -54 -13 -137 -40 -185 -58 -48 -19 -127 -49 -177 -66 -49 -17 -116
-42 -147 -55 -53 -21 -58 -22 -72 -6 -15 16 -57 102 -166 341 -29 63 -106 226
-171 361 -66 135 -119 249 -119 252 0 3 -53 115 -119 250 -120 247 -148 313
-137 324 3 4 20 -6 36 -22 31 -30 228 -411 289 -560 18 -44 91 -199 161 -345
70 -146 149 -317 176 -380 27 -63 62 -130 79 -149 31 -33 31 -33 63 -17 18 9
32 24 32 34 0 9 -34 87 -76 172 -93 192 -106 219 -242 510 -61 129 -124 263
-141 297 -17 34 -31 64 -31 67 0 3 -40 88 -89 188 -48 101 -94 201 -102 223
-7 22 -17 45 -22 52 -12 17 0 33 25 33 12 0 22 -8 25 -21 3 -11 77 -164 164
-340 88 -176 159 -322 159 -325 0 -6 146 -316 255 -539 40 -82 83 -179 95
-215 13 -36 26 -69 30 -73 9 -10 147 30 259 75 42 16 113 34 161 40 53 7 93
18 105 28 81 70 188 45 216 -50 14 -47 5 -101 -21 -125 -23 -20 -77 -22 -142
-4 -32 8 -47 7 -74 -6 -18 -8 -75 -28 -126 -44 -144 -45 -466 -162 -638 -231
-85 -34 -204 -79 -265 -100 -60 -21 -154 -55 -208 -74 -54 -20 -106 -36 -117
-36 -28 0 -33 -16 -14 -52 9 -18 18 -35 20 -37 1 -1 27 8 56 22 59 27 233 87
413 143 66 21 136 45 155 55 20 9 54 20 75 24 22 4 60 18 85 31 82 42 412 163
574 211 83 24 156 30 156 13 0 -11 -32 -25 -170 -77 -52 -19 -110 -43 -128
-54 -18 -10 -59 -26 -92 -34 -34 -9 -72 -21 -85 -27 -24 -11 -33 -33 -17 -40
19 -8 59 -82 170 -318 143 -303 140 -300 285 -300 50 0 87 4 87 10 0 20 53 22
106 4 45 -15 54 -22 54 -42 0 -23 -2 -24 -47 -18 -38 5 -57 2 -88 -14 -21 -11
-47 -20 -57 -20 -9 0 -19 -4 -22 -9 -17 -27 -175 28 -218 76 -34 37 -298 591
-298 624 0 8 -18 10 -62 5 -72 -8 -88 -19 -70 -44 66 -90 258 -443 297 -544
13 -35 46 -101 74 -147 28 -46 48 -87 45 -92 -3 -5 -14 -9 -25 -9 -26 0 -62
58 -211 350 -193 378 -235 450 -263 450 -12 0 -33 -8 -45 -18 l-21 -17 93
-185 c51 -102 108 -216 125 -255 18 -38 53 -106 78 -150 108 -185 118 -205
106 -219 -7 -8 -33 -19 -58 -26 -59 -14 -163 -62 -274 -127 -79 -45 -158 -80
-379 -171 -68 -28 -76 -29 -87 -14 -21 26 -15 42 15 42 15 1 41 9 58 18 116
63 162 85 231 107 43 14 98 33 123 42 41 15 43 17 20 23 -29 7 -38 41 -15 60
23 19 19 31 -29 105 -25 37 -63 111 -86 164 -23 53 -74 160 -113 239 -60 120
-69 144 -57 152 29 19 52 7 65 -35 7 -22 44 -105 84 -184 39 -79 71 -149 71
-156 0 -6 25 -54 56 -105 31 -52 57 -104 57 -117 0 -13 3 -26 7 -28 9 -6 207
22 221 31 26 16 -23 122 -113 244 -18 25 -50 86 -71 135 -91 211 -161 361
-177 378 -16 17 -20 18 -47 4 -16 -9 -35 -22 -42 -30 -6 -8 -28 -18 -49 -21
-40 -7 -456 -142 -484 -157 -23 -12 -23 -34 1 -73 19 -31 102 -227 116 -276
12 -38 166 -384 176 -394 15 -16 10 -45 -10 -55 -14 -8 -22 -6 -35 8 -20 22
-149 305 -261 571 -43 102 -93 215 -111 252 -18 36 -56 123 -83 192 -27 69
-72 169 -100 223 -28 54 -73 152 -101 218 -28 66 -84 178 -124 250 -40 71 -97
177 -126 235 -29 58 -57 112 -61 120 -30 56 -180 385 -219 480 -46 114 -46
115 -84 121 -77 12 -109 93 -64 159 31 46 65 57 126 42 88 -23 119 -98 67
-160 -14 -17 -25 -35 -25 -40 0 -40 344 -752 464 -961 42 -74 96 -182 120
-240 104 -251 165 -362 189 -342 7 5 89 26 182 46 237 52 405 119 405 162 0
20 -92 247 -118 291 -26 46 -139 281 -229 477 -93 205 -182 387 -231 470 -25
44 -60 116 -78 160 -32 78 -34 81 -81 97 -66 24 -85 51 -80 111 4 50 22 78 72
108 38 24 79 24 131 0z m2301 13 c-3 -3 -12 -4 -19 -1 -8 3 -5 6 6 6 11 1 17
-2 13 -5z m-597 -14 c0 -5 -4 -10 -10 -10 -5 0 -10 5 -10 10 0 6 5 10 10 10 6
0 10 -4 10 -10z m50 -10 c0 -5 -6 -7 -14 -4 -8 3 -16 -1 -18 -8 -2 -9 -12 -12
-33 -7 -30 7 -30 7 -3 8 15 0 30 6 33 11 8 13 35 13 35 0z m30 -5 c0 -8 -4
-15 -10 -15 -5 0 -10 7 -10 15 0 8 5 15 10 15 6 0 10 -7 10 -15z m180 5 c0 -5
-4 -10 -10 -10 -5 0 -10 5 -10 10 0 6 5 10 10 10 6 0 10 -4 10 -10z m-100 -19
c0 -3 -15 -7 -33 -7 -17 -1 -24 1 -14 3 9 2 17 8 17 13 0 5 7 7 15 4 8 -4 15
-9 15 -13z m-110 -23 c0 -12 -3 -18 -7 -15 -3 4 -12 2 -20 -4 -19 -16 -16 -3
4 21 22 25 23 25 23 -2z m157 0 c-3 -8 -6 -5 -6 6 -1 11 2 17 5 13 3 -3 4 -12
1 -19z m343 12 c0 -5 -5 -10 -11 -10 -5 0 -7 5 -4 10 3 6 8 10 11 10 2 0 4 -4
4 -10z m-30 -4 c0 -2 -7 -7 -16 -10 -8 -3 -12 -2 -9 4 6 10 25 14 25 6z m-420
-16 c0 -5 -4 -10 -10 -10 -5 0 -10 5 -10 10 0 6 5 10 10 10 6 0 10 -4 10 -10z
m-1037 -216 c49 -104 108 -236 132 -294 96 -234 289 -640 304 -640 6 0 40 16
76 36 57 32 70 35 103 27 20 -5 38 -16 40 -24 4 -20 -28 -34 -127 -55 -70 -15
-81 -20 -81 -38 0 -12 -3 -31 -6 -42 -8 -30 21 -35 125 -22 60 8 93 17 108 31
27 24 72 25 89 2 15 -21 4 -49 -25 -64 -34 -19 -205 -51 -268 -51 -72 0 -89
16 -57 51 18 20 18 22 -4 57 -13 20 -41 75 -63 122 -23 46 -77 159 -121 250
-44 91 -98 208 -120 260 -78 187 -122 287 -173 396 -62 132 -79 179 -71 201
15 37 52 -17 139 -203z m1471 186 c-6 -6 -10 -3 -10 10 0 13 4 16 10 10 7 -7
7 -13 0 -20z m-420 5 c-4 -8 -11 -12 -16 -9 -6 4 -5 10 3 15 19 12 19 11 13
-6z m580 -8 c-3 -8 -12 -18 -20 -21 -11 -4 -11 0 2 20 18 26 28 27 18 1z
m-734 -33 c21 -49 26 -71 9 -41 -16 27 -40 87 -35 87 3 0 14 -21 26 -46z m138
-1 c13 -20 17 -31 9 -25 -8 7 -23 9 -33 5 -16 -6 -17 -4 -7 8 8 10 9 20 2 29
-8 13 -10 13 -19 0 -5 -8 -10 -10 -10 -4 0 6 3 14 7 17 13 14 29 5 51 -30z
m525 12 c-3 -9 -8 -14 -10 -11 -3 3 -2 9 2 15 9 16 15 13 8 -4z m-369 -10 c-4
-8 -8 -15 -10 -15 -2 0 -4 7 -4 15 0 8 4 15 10 15 5 0 7 -7 4 -15z m-1482 -12
c9 -10 38 -67 66 -128 132 -289 230 -501 289 -624 79 -165 100 -211 169 -369
29 -68 64 -139 78 -157 32 -41 33 -63 4 -74 -27 -10 -44 1 -53 32 -6 20 -48
111 -225 482 -34 72 -94 198 -132 280 -39 83 -106 227 -150 320 -81 170 -106
255 -76 255 8 0 22 -8 30 -17z m1368 13 c0 -3 -4 -8 -10 -11 -5 -3 -10 -1 -10
4 0 6 5 11 10 11 6 0 10 -2 10 -4z m138 -22 c0 -17 -3 -22 -8 -13 -5 6 -6 18
-3 26 8 19 11 16 11 -13z m172 17 c0 -5 -7 -12 -16 -15 -14 -5 -15 -4 -4 9 14
17 20 19 20 6z m297 2 c-9 -2 -15 -8 -12 -13 3 -4 -5 -6 -17 -2 -21 5 -21 6
-2 13 10 4 26 7 34 7 10 0 9 -2 -3 -5z m-422 -13 c3 -6 -1 -7 -9 -4 -18 7 -21
14 -7 14 6 0 13 -4 16 -10z m345 -6 c0 -2 -7 -4 -15 -4 -8 0 -15 4 -15 10 0 5
7 7 15 4 8 -4 15 -8 15 -10z m-50 2 c0 -11 -19 -15 -25 -6 -3 5 1 10 9 10 9 0
16 -2 16 -4z m-210 -16 c0 -5 -8 -10 -17 -10 -15 0 -16 2 -3 10 19 12 20 12
20 0z m-55 -19 c-3 -6 -11 -11 -16 -11 -5 0 -4 6 3 14 14 16 24 13 13 -3z
m230 9 c3 -6 -1 -7 -9 -4 -18 7 -21 14 -7 14 6 0 13 -4 16 -10z m-500 -10 c3
-5 -1 -10 -9 -10 -9 0 -16 5 -16 10 0 6 4 10 9 10 6 0 13 -4 16 -10z m170 0
c-3 -5 -11 -10 -16 -10 -6 0 -7 5 -4 10 3 6 11 10 16 10 6 0 7 -4 4 -10z m60
0 c-3 -5 -11 -10 -16 -10 -6 0 -7 5 -4 10 3 6 11 10 16 10 6 0 7 -4 4 -10z
m315 6 c0 -2 -7 -7 -16 -10 -8 -3 -12 -2 -9 4 6 10 25 14 25 6z m-126 -21 c11
-8 16 -15 10 -15 -5 0 -18 7 -28 15 -11 8 -16 15 -10 15 5 0 18 -7 28 -15z
m277 -8 c-10 -9 -11 -8 -5 6 3 10 9 15 12 12 3 -3 0 -11 -7 -18z m-659 -4 c-6
-3 -10 -9 -6 -14 3 -5 0 -9 -6 -9 -6 0 -8 -4 -5 -10 11 -18 23 -11 34 22 6 17
14 29 17 26 9 -10 -25 -68 -40 -68 -8 0 -16 7 -20 15 -3 9 -12 12 -22 8 -12
-4 -15 -3 -10 5 4 7 14 12 22 12 9 0 12 5 8 12 -4 6 -3 8 4 4 6 -3 14 -1 17 5
4 5 10 7 14 3 3 -4 0 -9 -7 -11z m458 13 c0 -3 -4 -8 -10 -11 -5 -3 -10 -1
-10 4 0 6 5 11 10 11 6 0 10 -2 10 -4z m-290 -16 c0 -5 -5 -10 -11 -10 -5 0
-7 5 -4 10 3 6 8 10 11 10 2 0 4 -4 4 -10z m-60 -4 c0 -2 -7 -6 -15 -10 -8 -3
-15 -1 -15 4 0 6 7 10 15 10 8 0 15 -2 15 -4z m420 -11 c-7 -9 -15 -13 -19
-10 -3 3 1 10 9 15 21 14 24 12 10 -5z m-466 -3 c3 -5 -1 -9 -9 -9 -8 0 -12 4
-9 9 3 4 7 8 9 8 2 0 6 -4 9 -8z m348 1 c-6 -2 -10 -9 -6 -14 3 -5 0 -9 -5 -9
-12 0 -14 13 -4 23 3 4 11 7 17 6 6 0 5 -3 -2 -6z m242 -8 c-4 -8 -16 -14 -28
-14 -16 1 -17 2 -3 6 9 2 17 9 17 14 0 5 4 9 10 9 5 0 7 -7 4 -15z m-204 -5
c0 -5 -5 -10 -11 -10 -5 0 -7 5 -4 10 3 6 8 10 11 10 2 0 4 -4 4 -10z m-331
-21 c-9 -17 -13 -19 -20 -8 -5 8 -3 16 4 21 22 14 28 8 16 -13z m426 11 c-3
-5 -11 -10 -16 -10 -6 0 -7 5 -4 10 3 6 11 10 16 10 6 0 7 -4 4 -10z m-3437
-27 c50 -31 56 -106 12 -148 -16 -16 -30 -35 -30 -43 0 -7 15 -41 34 -75 19
-34 73 -145 119 -247 47 -102 119 -254 161 -338 80 -160 90 -196 55 -207 -11
-4 -22 -5 -24 -3 -1 1 -32 68 -68 148 -100 224 -275 587 -319 663 -21 37 -45
67 -53 67 -8 0 -26 11 -42 24 -50 43 -31 145 32 172 34 14 89 8 123 -13z
m2952 12 c10 -11 9 -18 -3 -30 -10 -9 -18 -11 -22 -5 -3 5 -1 10 4 10 15 0 14
27 -1 33 -8 4 -9 6 -2 6 6 1 17 -6 24 -14z m189 -18 c0 -9 -2 -9 -5 0 -3 7
-13 9 -22 6 -14 -4 -14 -3 -2 5 16 12 30 7 29 -11z m81 13 c0 -5 -2 -10 -4
-10 -3 0 -8 5 -11 10 -3 6 -1 10 4 10 6 0 11 -4 11 -10z m-310 -14 c0 -2 -11
-6 -25 -8 -13 -3 -22 -1 -19 3 5 9 44 13 44 5z m-2227 -20 c18 -7 41 -24 53
-37 25 -28 49 -109 40 -135 -8 -27 34 -111 93 -189 43 -56 51 -73 51 -109 0
-38 3 -43 32 -51 62 -19 48 -32 -97 -90 -39 -16 -86 -41 -105 -57 -38 -31 -58
-35 -66 -14 -13 33 25 74 103 114 43 21 89 41 102 45 l24 6 -28 32 c-15 18
-39 58 -54 89 -15 30 -44 86 -64 123 -20 38 -37 77 -37 87 0 17 -2 17 -37 -2
-33 -18 -43 -19 -80 -9 -58 16 -117 72 -108 103 11 38 39 72 76 90 41 22 60
22 102 4z m2290 -1 c-3 -9 -8 -14 -10 -11 -3 3 -2 9 2 15 9 16 15 13 8 -4z
m101 0 c-3 -6 -13 -11 -24 -11 -13 0 -16 4 -10 11 6 7 16 12 24 12 8 0 12 -5
10 -12z m90 -1 c3 -8 2 -12 -4 -9 -6 3 -10 10 -10 16 0 14 7 11 14 -7z m182
-12 c1 -7 0 -8 -3 -2 -2 5 -9 8 -13 5 -5 -3 -12 0 -15 6 -5 7 -1 10 10 7 10
-1 20 -9 21 -16z m154 8 c0 -5 -2 -10 -4 -10 -3 0 -8 5 -11 10 -3 6 -1 10 4
10 6 0 11 -4 11 -10z m-1403 -111 c66 -133 69 -153 26 -157 -31 -3 -33 -1 -71
82 -57 121 -67 153 -51 172 24 29 44 9 96 -97z m1023 75 c0 -3 -7 -1 -15 6 -8
7 -15 17 -15 22 0 5 7 3 15 -6 8 -8 15 -18 15 -22z m174 26 c-7 -7 -19 -7 -35
-1 -23 9 -22 10 11 10 23 1 31 -2 24 -9z m256 0 c0 -5 -5 -10 -11 -10 -5 0 -7
5 -4 10 3 6 8 10 11 10 2 0 4 -4 4 -10z m-620 -8 c0 -5 -9 -17 -20 -27 -12
-11 -20 -13 -20 -6 0 6 7 14 15 17 8 4 12 10 9 15 -3 5 0 9 5 9 6 0 11 -4 11
-8z m584 -11 c3 -5 -1 -11 -9 -14 -9 -4 -12 -1 -8 9 6 16 10 17 17 5z m-274
-11 c0 -5 -5 -10 -11 -10 -5 0 -7 5 -4 10 3 6 8 10 11 10 2 0 4 -4 4 -10z
m-283 -6 c-3 -3 -12 -4 -19 -1 -8 3 -5 6 6 6 11 1 17 -2 13 -5z m393 2 c0 -3
-4 -8 -10 -11 -5 -3 -10 -1 -10 4 0 6 5 11 10 11 6 0 10 -2 10 -4z m-340 -15
c0 -14 -29 -21 -36 -9 -4 7 -3 8 4 4 7 -4 12 -2 12 3 0 6 5 11 10 11 6 0 10
-4 10 -9z m544 1 c3 -5 -1 -9 -9 -9 -8 0 -15 4 -15 9 0 4 4 8 9 8 6 0 12 -4
15 -8z m-3851 -11 c13 -5 35 -26 47 -46 12 -20 41 -58 64 -85 23 -27 53 -75
66 -107 13 -32 60 -132 105 -223 176 -353 236 -489 233 -523 -2 -20 -8 -32
-18 -32 -17 0 -38 39 -156 295 -47 102 -110 235 -139 295 -30 61 -74 154 -99
208 -25 53 -50 97 -56 97 -6 0 -20 -5 -31 -10 -18 -10 -19 -8 -13 28 8 51 -26
79 -74 61 -20 -8 -21 -11 -11 -31 6 -13 20 -32 30 -44 11 -11 43 -76 73 -145
29 -68 84 -185 121 -259 37 -74 82 -169 100 -210 18 -41 55 -115 83 -164 57
-99 73 -153 51 -167 -24 -15 -28 -11 -62 59 -19 37 -57 110 -85 163 -28 53
-62 124 -76 157 -14 33 -59 129 -100 213 -41 85 -81 172 -90 193 -9 22 -34 63
-55 90 -21 28 -45 68 -52 89 -14 39 -13 39 24 73 38 35 73 43 120 25z m3434
-13 c-3 -8 -6 -5 -6 6 -1 11 2 17 5 13 3 -3 4 -12 1 -19z m183 12 c0 -5 -2
-10 -4 -10 -3 0 -8 5 -11 10 -3 6 -1 10 4 10 6 0 11 -4 11 -10z m-380 -10 c0
-5 -4 -10 -10 -10 -5 0 -10 5 -10 10 0 6 5 10 10 10 6 0 10 -4 10 -10z m95 -9
c-3 -6 -11 -11 -16 -11 -5 0 -4 6 3 14 14 16 24 13 13 -3z m655 9 c0 -5 -4
-10 -10 -10 -5 0 -10 5 -10 10 0 6 5 10 10 10 6 0 10 -4 10 -10z m-720 -21 c0
-5 -4 -8 -9 -4 -5 3 -12 1 -16 -5 -3 -5 -1 -10 6 -10 7 0 10 -3 6 -6 -3 -3
-11 -3 -17 1 -8 5 -8 11 1 21 14 17 29 18 29 3z m600 7 c0 -3 -4 -8 -10 -11
-5 -3 -10 -1 -10 4 0 6 5 11 10 11 6 0 10 -2 10 -4z m-495 -16 c3 -5 1 -10 -4
-10 -6 0 -11 5 -11 10 0 6 2 10 4 10 3 0 8 -4 11 -10z m215 -5 c-7 -8 -17 -15
-22 -15 -11 0 14 29 26 30 5 0 3 -7 -4 -15z m-3166 -22 c15 -15 61 -97 103
-183 41 -85 101 -209 133 -275 33 -66 84 -173 114 -238 51 -109 53 -118 36
-127 -10 -6 -23 -10 -29 -10 -6 0 -28 37 -50 83 -21 45 -67 141 -101 212 -34
72 -91 193 -126 270 -36 77 -80 170 -99 206 -19 37 -35 71 -35 78 0 20 26 12
54 -16z m3013 5 c-3 -8 -6 -5 -6 6 -1 11 2 17 5 13 3 -3 4 -12 1 -19z m343 18
c0 -2 -7 -7 -16 -10 -8 -3 -12 -2 -9 4 6 10 25 14 25 6z m170 -6 c0 -5 -4 -10
-10 -10 -5 0 -10 5 -10 10 0 6 5 10 10 10 6 0 10 -4 10 -10z m-4160 -67 c0
-21 8 -46 18 -57 10 -12 33 -59 51 -106 19 -47 70 -159 113 -250 44 -91 97
-209 119 -264 54 -133 72 -166 119 -221 23 -26 40 -55 38 -64 -6 -32 -37 -21
-89 31 -46 45 -61 71 -103 173 -27 66 -107 245 -178 397 -153 329 -171 398
-107 398 15 0 19 -7 19 -37z m1502 10 c9 -10 32 -54 52 -98 20 -44 86 -177
146 -295 60 -118 128 -253 151 -300 22 -47 70 -143 105 -214 55 -109 65 -136
63 -173 -3 -38 0 -46 20 -56 13 -7 29 -20 35 -30 9 -15 6 -23 -17 -43 -15 -13
-40 -24 -55 -24 -15 0 -88 -19 -162 -41 -211 -64 -170 -94 -345 256 -83 165
-170 335 -193 377 l-43 77 25 16 c15 10 33 14 46 10 14 -4 37 1 63 14 60 29
215 74 232 67 8 -3 15 -2 15 3 0 15 -91 217 -145 322 -61 119 -68 149 -32 149
13 0 31 -8 39 -17z m-1685 -13 c45 -27 65 -70 62 -133 -2 -45 4 -65 51 -157
57 -114 79 -163 177 -405 87 -217 89 -219 150 -262 58 -40 63 -59 23 -82 -25
-13 -28 -12 -82 40 -62 60 -85 100 -130 227 -27 79 -62 160 -180 427 -57 130
-61 135 -108 135 -36 0 -40 -2 -40 -25 0 -14 30 -99 66 -188 98 -242 221 -534
253 -603 32 -66 28 -94 -13 -94 -26 0 -19 -15 -142 290 -37 91 -91 226 -122
300 -30 74 -67 170 -83 212 -15 43 -37 94 -48 115 -21 42 -24 58 -22 117 2 57
53 106 113 106 25 0 56 -8 75 -20z m3823 16 c0 -3 -4 -8 -10 -11 -5 -3 -10 -1
-10 4 0 6 5 11 10 11 6 0 10 -2 10 -4z m16 -65 c0 -11 -4 -17 -8 -15 -4 3 -8
12 -8 20 0 8 4 14 8 14 4 0 8 -9 8 -19z m39 9 c3 -5 1 -10 -4 -10 -6 0 -11 5
-11 10 0 6 2 10 4 10 3 0 8 -4 11 -10z m65 -29 c0 -5 -7 -12 -16 -15 -14 -5
-15 -4 -4 9 14 17 20 19 20 6z m120 -7 c0 -8 -19 -13 -24 -6 -3 5 1 9 9 9 8 0
15 -2 15 -3z m-1081 -41 c19 -15 27 -30 29 -61 3 -35 -2 -46 -32 -80 l-35 -39
40 -39 c26 -25 44 -55 54 -89 26 -90 54 -209 49 -214 -7 -8 -53 41 -84 89 -40
63 -80 172 -80 220 0 38 -2 40 -30 40 -21 0 -39 9 -56 28 -23 24 -25 34 -22
81 6 71 33 95 97 88 24 -3 55 -14 70 -24z m871 17 c0 -5 -7 -7 -15 -4 -8 4
-15 8 -15 10 0 2 7 4 15 4 8 0 15 -4 15 -10z m-4145 -128 c81 -168 241 -542
290 -677 26 -71 58 -157 71 -190 23 -56 23 -61 7 -72 -9 -7 -20 -13 -25 -13
-12 0 -62 105 -96 200 -76 216 -223 565 -298 706 -58 109 -63 128 -37 142 29
16 40 4 88 -96z m4315 76 c0 -6 -6 -5 -15 2 -8 7 -15 14 -15 16 0 2 7 1 15 -2
8 -4 15 -11 15 -16z m-4510 -18 c12 -8 13 -13 2 -27 -24 -35 -25 -46 -7 -59
10 -8 29 -11 42 -8 24 6 29 -2 14 -25 -6 -9 2 -39 26 -90 19 -42 59 -134 88
-206 29 -71 70 -168 90 -215 79 -182 165 -395 165 -411 0 -16 -36 -33 -51 -24
-4 3 -10 16 -13 29 -3 14 -47 118 -97 233 -50 114 -110 258 -134 319 -45 116
-128 291 -170 359 -29 46 -32 91 -8 117 18 20 31 22 53 8z m4277 -42 c-3 -8
-6 -5 -6 6 -1 11 2 17 5 13 3 -3 4 -12 1 -19z m-4453 -15 c41 -19 45 -27 53
-102 3 -31 19 -82 35 -115 16 -32 65 -140 108 -240 43 -99 101 -234 129 -298
28 -65 51 -120 51 -124 0 -4 14 -39 32 -77 l32 -69 -24 -20 c-28 -23 -31 -20
-63 57 -137 332 -344 796 -373 833 -1 2 -27 6 -56 8 -60 4 -78 20 -78 70 0 24
9 40 35 63 40 35 69 38 119 14z m1980 -34 c43 -34 29 -79 -26 -79 -44 0 -58
46 -25 88 13 17 20 15 51 -9z m2666 17 c0 -3 -4 -8 -10 -11 -5 -3 -10 -1 -10
4 0 6 5 11 10 11 6 0 10 -2 10 -4z m-6 -34 c3 -5 -1 -9 -9 -9 -8 0 -15 4 -15
9 0 4 4 8 9 8 6 0 12 -4 15 -8z m-4934 -69 c64 -44 76 -96 37 -154 l-22 -33
39 -76 c83 -157 312 -684 331 -763 6 -23 3 -27 -22 -32 -43 -10 -140 -45 -218
-80 -38 -17 -151 -57 -250 -89 -99 -32 -219 -72 -267 -89 -80 -28 -85 -32 -67
-45 10 -7 29 -32 41 -55 16 -32 243 -583 322 -781 10 -26 14 -28 56 -23 25 3
92 22 150 42 58 21 145 51 194 68 49 17 150 61 225 99 l136 68 18 -21 c27 -33
21 -46 -30 -65 -27 -9 -89 -34 -140 -56 -51 -21 -95 -38 -98 -38 -4 0 -73 -27
-153 -59 -81 -32 -217 -82 -302 -109 -189 -62 -308 -103 -377 -130 -58 -24
-406 -132 -422 -132 -6 0 -11 7 -11 14 0 31 70 65 240 119 139 43 317 105 467
162 9 3 2 25 -21 72 -18 37 -75 169 -126 293 -152 373 -212 515 -220 523 -8 9
-249 -40 -264 -54 -11 -9 11 -19 114 -51 73 -23 76 -24 105 -78 35 -66 256
-604 262 -641 5 -28 -16 -53 -43 -47 -11 2 -23 24 -34 63 -33 114 -239 609
-261 626 -12 9 -44 22 -72 29 -27 7 -75 23 -106 35 -31 13 -77 26 -103 30 -27
4 -48 11 -48 15 0 10 72 30 113 30 19 0 65 14 101 31 37 17 108 44 159 59 115
35 599 205 727 255 52 21 109 38 125 39 24 2 29 6 27 22 -4 23 -44 112 -255
574 -42 91 -80 177 -86 191 -8 22 -17 27 -57 32 -38 4 -55 12 -76 36 -32 36
-35 68 -11 118 31 66 119 94 173 56z m5897 -9 c-3 -3 -12 -4 -19 -1 -8 3 -5 6
6 6 11 1 17 -2 13 -5z m70 -10 c-3 -3 -12 -4 -19 -1 -8 3 -5 6 6 6 11 1 17 -2
13 -5z m-5758 -119 c23 -49 67 -151 97 -225 30 -74 77 -182 104 -240 27 -58
74 -163 104 -233 53 -127 53 -128 33 -142 -26 -18 -47 -19 -47 -4 0 7 -24 66
-54 133 -142 319 -309 725 -314 765 -4 38 -3 43 14 40 13 -3 34 -34 63 -94z
m-908 -188 c48 -32 64 -70 50 -117 -33 -110 -163 -150 -242 -74 -52 50 -34
153 34 194 45 28 115 26 158 -3z m657 -58 c3 -18 11 -14 -316 -143 -228 -90
-352 -125 -352 -99 0 15 93 72 152 92 29 10 76 29 103 41 28 12 109 43 180 70
72 26 137 50 145 53 29 11 85 3 88 -14z m-2320 -151 c-15 -37 -21 -78 -22
-136 -1 -65 -3 -75 -10 -50 -13 50 -1 149 23 196 29 58 33 53 9 -10z m2378
-14 c10 -15 13 -29 8 -34 -5 -5 -70 -27 -144 -50 -74 -22 -259 -83 -410 -135
-151 -53 -285 -95 -296 -95 -12 0 -28 -7 -35 -16 -23 -28 -163 -13 -231 24
-29 17 -78 37 -109 46 -31 9 -62 22 -69 30 -21 26 -7 50 33 60 34 9 46 6 128
-37 117 -61 202 -78 280 -54 91 27 505 171 664 230 83 31 153 56 157 56 4 1
15 -10 24 -25z m-1418 -84 c38 -23 65 -79 56 -115 -3 -13 -24 -40 -45 -60 -35
-31 -45 -35 -95 -35 -50 0 -59 3 -90 34 -77 77 -19 195 96 196 28 0 58 -8 78
-20z m3530 -69 c220 -86 233 -92 229 -105 -9 -26 -120 -76 -332 -147 -224 -76
-530 -182 -610 -212 -136 -50 -232 -90 -242 -100 -19 -19 -142 -298 -137 -312
3 -6 10 -12 17 -13 7 -1 46 -9 87 -18 59 -13 86 -14 125 -6 27 5 237 74 465
152 228 78 437 144 463 147 59 6 183 -30 305 -88 136 -65 233 -183 272 -327
19 -75 -12 -217 -81 -370 -17 -37 -42 -93 -57 -124 -14 -32 -29 -58 -33 -58
-4 0 -10 -7 -13 -16 -3 -8 -2 -12 4 -9 6 3 10 2 10 -3 0 -4 -30 -19 -67 -32
-38 -12 -138 -50 -223 -83 -85 -32 -211 -79 -280 -102 -69 -24 -197 -71 -285
-105 -184 -71 -186 -71 -350 -19 -71 22 -101 35 -93 41 8 6 5 7 -9 3 -27 -7
-66 3 -58 15 3 5 -16 12 -42 15 -65 9 -96 19 -101 33 -2 6 16 31 40 55 36 35
57 47 110 60 37 9 120 41 185 71 65 29 145 61 178 70 33 9 89 28 125 42 36 14
132 47 215 74 82 26 173 58 200 70 28 12 86 34 130 49 l79 28 24 59 c42 103
64 250 46 298 -9 22 -78 21 -194 -5 -118 -25 -263 -66 -310 -86 -19 -8 -125
-46 -235 -83 -110 -38 -238 -82 -285 -100 -81 -30 -88 -31 -144 -20 -74 15
-264 82 -329 118 -71 38 -171 150 -197 220 -18 46 -21 69 -15 117 8 75 44 182
93 283 21 42 49 106 62 142 13 36 28 70 34 76 6 6 43 22 81 36 39 14 142 53
230 86 88 33 239 87 335 121 96 33 216 76 265 95 50 19 100 35 113 35 13 1
103 -30 200 -68z m-2027 18 c6 -12 7 -24 2 -29 -13 -11 -200 -76 -320 -110
-181 -52 -451 -141 -588 -193 -154 -58 -201 -61 -350 -22 -54 14 -100 23 -105
20 -4 -2 -10 -22 -14 -44 -13 -81 -110 -130 -187 -95 -51 23 -69 48 -69 99 0
75 67 145 139 145 37 0 96 -32 111 -60 8 -16 14 -17 39 -7 23 8 45 7 108 -10
136 -37 149 -37 197 -9 24 14 94 39 157 57 63 17 177 54 254 81 77 28 198 68
270 89 71 21 173 54 225 73 113 42 116 42 131 15z m39 -148 c0 -11 -37 -29
-118 -58 -120 -44 -581 -192 -662 -213 -25 -7 -103 -34 -175 -60 -71 -26 -157
-53 -190 -60 -33 -6 -125 -29 -205 -50 -202 -54 -199 -53 -206 -35 -4 8 -1 21
5 29 24 29 220 86 296 86 48 0 205 48 301 90 37 17 108 42 158 56 124 34 604
193 640 211 17 9 53 24 80 33 46 16 52 16 64 2 6 -9 12 -23 12 -31z m80 -105
c0 -19 -10 -28 -52 -46 -53 -23 -547 -186 -848 -280 -91 -28 -288 -92 -438
-141 -150 -49 -283 -89 -296 -89 -22 0 -46 17 -46 32 0 4 26 15 58 23 31 9
116 36 187 60 72 24 231 76 355 115 124 39 313 101 420 136 107 36 251 83 320
104 69 22 163 55 210 74 103 43 130 46 130 12z m4231 -27 c11 -11 18 -27 15
-36 -3 -8 -6 -18 -6 -23 0 -9 -42 -26 -89 -35 -19 -4 -49 -14 -67 -21 l-34
-14 36 -47 c42 -55 83 -134 114 -221 13 -34 26 -65 30 -67 5 -3 31 11 59 30
57 40 79 43 111 17 21 -17 22 -21 10 -55 -11 -28 -11 -47 -3 -84 6 -26 10 -49
9 -51 -2 -1 -22 22 -45 53 -45 59 -52 63 -71 41 -13 -17 -98 -52 -105 -44 -3
3 -12 30 -20 61 -8 32 -30 87 -49 124 -31 63 -56 122 -86 201 -12 31 -14 32
-68 32 -53 0 -55 1 -39 17 15 16 250 139 270 142 4 0 16 -8 28 -20z m-385 -91
c15 -18 35 -51 45 -73 9 -22 52 -119 94 -215 126 -286 141 -340 76 -271 -50
53 -278 548 -267 578 8 21 22 15 52 -19z m-3710 -113 c4 -8 1 -22 -6 -30 -9
-11 -2 -39 38 -137 79 -192 136 -309 176 -356 20 -24 36 -50 36 -57 0 -17 -38
-45 -61 -45 -21 0 -174 305 -209 415 -24 74 -56 145 -66 145 -17 0 -130 -33
-137 -39 -5 -5 6 -39 23 -77 18 -38 59 -134 91 -212 71 -172 102 -228 142
-252 l29 -18 -21 -21 c-28 -28 -65 -27 -89 3 -10 13 -36 66 -57 118 -75 182
-128 304 -167 381 -32 64 -37 81 -27 98 9 17 17 20 41 15 23 -5 48 4 115 39
87 46 139 57 149 30z m4141 7 c12 -8 39 -129 30 -138 -5 -5 -48 82 -62 125 -7
22 8 28 32 13z m-4556 -152 c41 -76 199 -446 253 -593 10 -27 25 -51 33 -54
34 -13 148 18 275 76 138 63 152 64 160 17 2 -15 -6 -22 -37 -32 -22 -6 -81
-30 -131 -52 -50 -22 -132 -50 -182 -63 -138 -33 -129 -44 -272 314 -49 122
-105 253 -124 290 -20 38 -36 77 -36 87 0 31 46 38 61 10z m3521 -7 c13 -16
42 -59 63 -98 21 -38 61 -110 88 -160 27 -49 69 -127 93 -173 47 -88 57 -142
27 -142 -19 0 -32 25 -212 380 -92 182 -108 220 -94 220 5 0 21 -12 35 -27z
m-3639 -171 c30 -64 71 -162 92 -217 54 -147 115 -288 131 -305 8 -8 33 -21
56 -30 31 -11 43 -21 43 -35 0 -17 -6 -20 -43 -18 -24 1 -60 10 -80 20 -31 15
-42 29 -63 83 -15 36 -59 146 -98 245 -40 99 -90 219 -112 267 -21 47 -39 91
-39 96 0 12 29 20 46 15 6 -3 36 -57 67 -121z m3434 -14 c34 -68 89 -193 123
-278 34 -85 77 -183 95 -217 29 -52 32 -63 20 -73 -33 -27 -57 9 -148 220
-107 247 -160 357 -189 394 l-31 39 22 19 c13 10 29 18 35 18 7 0 40 -55 73
-122z m-168 63 c9 -6 10 -11 2 -15 -6 -4 -11 -14 -11 -23 0 -18 131 -315 201
-457 55 -110 70 -161 58 -194 -9 -24 -39 -30 -39 -8 0 7 -24 63 -54 124 -30
61 -83 177 -117 259 -34 81 -77 179 -95 217 -19 38 -34 73 -34 77 0 5 15 13
33 18 42 12 40 12 56 2z m-4026 -97 c34 -15 100 -38 147 -51 47 -14 90 -29 97
-35 6 -5 23 -40 37 -76 14 -37 55 -142 90 -234 36 -92 72 -192 81 -222 14 -47
20 -56 46 -61 16 -4 29 -12 29 -19 0 -25 -36 -45 -115 -65 -126 -32 -338 -106
-387 -135 -60 -35 -90 -34 -122 5 -30 35 -32 51 -10 73 18 18 34 21 34 6 0 -6
10 -15 23 -21 18 -8 36 -6 83 11 32 12 117 41 188 66 120 42 186 70 186 78 0
2 -21 57 -46 123 -72 185 -144 381 -144 391 0 33 -131 81 -304 111 -157 28
-169 27 -254 -15 -68 -34 -75 -35 -90 -20 -26 25 -5 47 79 83 67 29 84 32 182
32 95 1 115 -2 170 -25z m-1155 -15 c-3 -8 -7 -3 -11 10 -4 17 -3 21 5 13 5
-5 8 -16 6 -23z m6879 -89 c49 -22 80 -72 69 -113 -12 -49 -54 -86 -123 -107
-36 -11 -115 -42 -176 -69 -62 -27 -143 -59 -182 -71 -38 -12 -106 -37 -150
-55 -44 -18 -181 -70 -305 -115 -124 -45 -312 -116 -417 -156 -106 -41 -201
-74 -211 -74 -10 0 -27 7 -38 15 -26 20 -21 23 176 91 208 72 620 228 705 268
28 13 103 42 250 96 33 12 105 45 160 74 78 41 99 57 97 72 -9 71 -6 101 16
132 28 38 64 42 129 12z m-5852 -62 c21 -25 25 -38 20 -67 -4 -28 6 -67 45
-175 61 -165 64 -172 103 -213 27 -28 28 -34 16 -49 -20 -25 -109 -64 -145
-64 -31 0 -44 14 -44 46 0 8 20 23 45 34 25 11 45 23 45 27 0 4 -17 49 -38 98
-22 50 -51 126 -67 171 l-27 81 -57 -1 c-31 0 -62 3 -68 7 -7 5 -13 28 -13 52
0 59 32 85 105 85 47 0 56 -3 80 -32z m191 -36 c21 -14 168 -395 172 -448 10
-115 -41 -59 -98 109 -21 61 -58 159 -83 217 -42 95 -45 106 -30 118 19 14 24
14 39 4z m5701 -219 c9 -23 -30 -53 -112 -85 -39 -15 -122 -48 -185 -73 -63
-25 -139 -53 -167 -61 -57 -16 -248 -84 -633 -226 -135 -50 -276 -102 -313
-115 -75 -26 -132 -28 -132 -3 0 22 69 53 244 110 85 27 197 67 250 89 53 21
175 64 271 96 284 93 477 164 615 226 72 32 136 59 143 59 7 0 15 -7 19 -17z
m-4067 -149 c5 -11 5 -25 2 -30 -4 -6 -74 -34 -157 -63 -147 -52 -321 -117
-500 -188 -174 -69 -287 -109 -458 -162 -38 -12 -127 -44 -197 -71 -71 -27
-149 -55 -174 -62 -31 -8 -48 -19 -52 -33 -18 -60 -79 -85 -154 -63 -85 25
-103 126 -34 196 27 27 39 32 78 32 41 0 50 -5 84 -40 l38 -41 145 51 c79 29
259 91 399 140 284 98 443 155 540 195 36 14 118 46 183 71 64 24 139 55 165
69 55 29 82 28 92 -1z m4180 -53 c41 -28 61 -80 50 -123 -15 -52 -45 -85 -85
-92 -55 -11 -108 9 -150 55 -33 36 -36 46 -31 78 3 19 14 47 24 61 37 49 137
60 192 21z m-4130 -70 c5 -11 10 -29 10 -40 0 -17 -6 -21 -32 -21 -18 0 -57
-9 -87 -20 -29 -12 -101 -35 -160 -52 -58 -16 -131 -43 -161 -58 -30 -15 -66
-31 -80 -34 -14 -4 -60 -22 -103 -39 -95 -39 -95 -23 1 -250 38 -89 106 -254
152 -367 45 -113 132 -322 193 -465 61 -143 123 -296 138 -340 16 -44 32 -81
36 -82 4 -1 25 -4 46 -8 48 -8 123 -74 132 -116 9 -41 -28 -113 -73 -144 -65
-44 -190 -28 -227 28 -32 49 -18 156 26 203 18 20 19 26 9 65 -7 24 -27 78
-45 119 -54 122 -103 237 -156 370 -28 69 -77 188 -109 265 -33 77 -71 171
-85 210 -15 38 -59 144 -99 235 -73 165 -102 252 -90 271 3 6 19 9 34 7 19 -2
37 5 52 19 36 34 161 88 340 147 90 30 195 68 233 85 83 36 91 37 105 12z
m3832 2 c33 -30 22 -40 -54 -47 -40 -4 -100 -18 -133 -31 -33 -13 -98 -35
-145 -50 -47 -14 -125 -43 -175 -65 -49 -21 -155 -61 -235 -88 -80 -28 -185
-66 -235 -85 -94 -37 -230 -65 -258 -54 -42 16 -7 39 110 71 137 38 422 137
592 205 85 34 197 76 248 92 51 16 112 39 135 49 54 24 125 26 150 3z m-1545
-77 c10 -13 27 -43 38 -67 23 -53 169 -322 235 -434 26 -44 67 -118 91 -165
24 -47 49 -88 54 -92 6 -4 25 -8 43 -8 37 0 66 -13 100 -43 33 -30 31 -105 -4
-146 -22 -27 -32 -31 -75 -31 -114 0 -181 90 -138 184 11 23 7 31 -39 88 -34
41 -89 138 -162 282 -60 122 -135 269 -166 328 -31 59 -53 112 -49 117 11 19
53 12 72 -13z m-2207 -148 c29 -73 90 -219 136 -325 83 -190 91 -213 77 -213
-5 0 -18 -3 -30 -6 -20 -6 -27 4 -72 97 -28 57 -72 163 -99 234 -27 72 -60
152 -72 178 -25 53 -30 54 -120 22 -48 -17 -45 -32 28 -190 59 -128 124 -279
165 -383 17 -44 26 -55 62 -71 24 -10 58 -22 76 -26 88 -18 106 -26 117 -50
10 -21 9 -27 -4 -32 -49 -18 -215 29 -264 76 -16 15 -49 77 -80 151 -104 248
-191 445 -207 466 -12 16 -15 16 -58 0 -25 -10 -45 -23 -45 -29 0 -6 20 -52
44 -102 46 -92 167 -377 213 -498 29 -78 58 -106 140 -138 49 -19 74 -22 164
-20 101 2 108 1 137 -24 17 -14 34 -36 38 -48 4 -12 35 -86 70 -164 61 -136
72 -172 58 -186 -22 -21 -75 72 -157 275 -19 47 -51 67 -117 75 -52 6 -52 6
-45 -18 11 -36 63 -155 102 -233 19 -38 36 -85 36 -103 1 -18 5 -33 9 -33 17
0 48 -67 48 -104 0 -56 -52 -106 -110 -106 -50 0 -73 11 -122 58 -29 28 -38
44 -38 70 0 19 -24 87 -55 157 -30 69 -55 128 -55 132 0 5 -14 20 -31 34 l-32
26 31 34 c24 27 34 32 47 24 9 -5 45 -82 81 -170 35 -88 71 -165 79 -171 16
-12 80 -3 96 13 5 5 -12 53 -37 108 -25 55 -56 130 -69 166 -35 101 -39 106
-101 124 -73 21 -173 68 -202 95 -12 11 -22 31 -22 43 0 48 -103 317 -211 554
-40 89 -54 103 -99 103 -71 0 -76 -29 -21 -138 21 -42 67 -140 101 -217 35
-77 71 -151 80 -165 10 -15 20 -55 23 -99 5 -62 14 -89 51 -161 24 -47 62
-133 84 -190 22 -58 59 -143 81 -189 45 -93 49 -112 25 -132 -23 -19 -43 -2
-63 56 -10 28 -35 88 -56 135 -20 47 -71 164 -113 260 -41 96 -89 190 -105
209 -28 32 -29 38 -23 93 5 55 3 65 -34 138 -22 44 -51 108 -64 142 -13 35
-42 103 -65 152 -22 49 -41 97 -41 107 0 23 37 34 83 25 28 -5 38 -2 61 23 19
20 53 37 99 51 38 12 81 29 95 38 14 9 38 15 54 13 41 -4 134 44 155 80 10 16
23 29 29 29 6 0 35 -60 64 -132z m2140 -98 c53 -118 140 -309 194 -425 114
-246 156 -359 139 -376 -18 -18 -65 62 -179 308 -58 126 -123 265 -145 310
-21 44 -39 85 -39 90 0 4 -30 69 -66 145 -71 144 -75 172 -27 166 25 -3 35
-21 123 -218z m-238 113 c14 -27 58 -122 98 -213 39 -91 117 -262 171 -380
180 -387 178 -381 146 -388 -27 -6 -51 21 -82 91 -15 34 -66 145 -112 247 -47
102 -105 230 -130 285 -24 55 -58 128 -74 162 -16 34 -29 65 -29 69 0 4 -19
38 -41 76 -34 56 -39 71 -29 83 25 30 55 18 82 -32z m1756 11 c44 -31 26 -62
-66 -109 -39 -20 -61 -26 -84 -21 -45 9 -155 -11 -218 -40 -62 -29 -223 -88
-380 -140 -277 -92 -306 -98 -331 -68 -11 14 -10 20 14 40 16 13 39 24 53 24
49 0 184 41 346 104 425 165 441 170 558 154 21 -3 26 1 28 27 6 46 38 58 80
29z m507 -28 c87 -37 86 -176 -2 -213 -50 -20 -115 -10 -154 25 -55 49 -49
169 9 191 40 14 108 13 147 -3z m-2443 -18 c8 -13 45 -90 83 -173 37 -82 71
-154 75 -160 5 -5 44 -93 88 -195 44 -102 101 -231 126 -288 44 -97 57 -164
37 -177 -15 -9 -55 52 -96 145 -20 47 -70 159 -110 250 -40 91 -116 257 -169
370 -53 112 -96 212 -96 221 0 36 40 40 62 7z m-156 -50 c10 -18 50 -109 89
-203 90 -212 199 -462 272 -624 30 -68 56 -137 57 -155 1 -27 -2 -31 -24 -31
-22 0 -31 14 -88 145 -170 390 -198 454 -251 580 -32 74 -72 163 -89 197 -36
71 -40 98 -14 112 26 16 30 14 48 -21z m2304 -23 c8 -24 8 -40 1 -53 -14 -26
-77 -55 -102 -47 -28 9 -57 71 -43 93 16 25 54 42 96 42 33 0 38 -3 48 -35z
m-4802 -102 c65 -126 133 -285 237 -554 47 -119 130 -326 186 -460 125 -300
148 -361 142 -376 -6 -17 -38 -17 -51 0 -17 20 -133 294 -248 587 -106 268
-171 428 -271 665 -73 173 -95 234 -88 246 14 21 46 -16 93 -108z m2343 40
c12 -27 45 -100 74 -163 30 -63 78 -176 108 -250 30 -74 67 -162 82 -195 51
-113 85 -198 85 -213 0 -8 16 -33 36 -55 34 -37 36 -43 32 -94 -4 -44 -11 -60
-35 -85 -41 -41 -102 -48 -166 -20 -60 27 -81 66 -78 149 1 34 -3 64 -9 68
-15 9 -48 77 -121 246 -34 79 -76 178 -94 219 -19 41 -51 116 -73 167 -22 51
-50 106 -61 122 -12 16 -21 38 -21 50 0 27 32 44 53 28 13 -11 90 -178 310
-682 33 -77 61 -141 62 -143 1 -1 15 2 31 7 16 5 41 12 57 15 25 6 26 8 13 29
-13 20 -67 140 -173 382 -75 170 -117 263 -154 340 -44 91 -46 100 -21 114 31
19 43 12 63 -36z m-2528 -61 c26 -48 138 -320 227 -552 127 -333 189 -489 204
-517 9 -18 37 -83 62 -145 25 -62 61 -149 80 -194 19 -45 34 -83 34 -86 0 -12
-61 -31 -70 -22 -5 5 -27 59 -50 119 -23 61 -106 272 -185 470 -78 198 -158
401 -176 450 -18 50 -67 171 -109 270 -88 209 -84 206 -199 156 -38 -17 -74
-31 -81 -31 -6 0 -65 -20 -131 -45 -142 -53 -151 -54 -147 -19 3 23 17 31 158
86 177 68 330 118 346 111 6 -2 23 -25 37 -51z m2199 -43 c10 -19 45 -99 79
-179 33 -80 77 -183 98 -230 21 -47 52 -119 69 -160 174 -419 191 -470 159
-470 -24 0 -46 34 -83 126 -20 48 -47 109 -60 135 -13 26 -32 69 -43 95 -73
183 -230 543 -270 619 -25 48 -26 63 -4 87 22 24 34 19 55 -23z m2346 14 c18
-9 46 -32 62 -52 24 -28 30 -45 30 -83 0 -41 -5 -54 -32 -83 -62 -66 -170 -49
-226 35 -45 67 -14 171 59 197 36 12 54 10 107 -14z m-4710 -121 c28 -53 144
-347 172 -437 7 -22 45 -123 85 -225 252 -643 275 -710 242 -710 -42 0 -67 47
-150 280 -57 158 -275 736 -332 880 -29 74 -61 161 -70 193 -30 103 3 114 53
19z m2234 -27 c21 -49 46 -108 55 -130 9 -22 41 -96 71 -165 30 -69 69 -165
87 -215 18 -49 52 -135 77 -190 25 -55 50 -114 57 -132 7 -18 19 -38 27 -44
28 -23 12 -99 -21 -99 -14 0 -133 262 -213 470 -43 113 -177 423 -217 505 -36
73 -33 99 13 93 20 -2 31 -19 64 -93z m2252 49 c9 -8 16 -21 16 -29 0 -26
-508 -173 -547 -158 -26 10 -12 31 35 50 96 41 435 149 474 152 4 1 14 -6 22
-15z m-2389 -189 c40 -99 90 -220 112 -270 22 -49 48 -115 58 -145 27 -83 109
-276 150 -352 44 -82 45 -121 3 -126 -21 -3 -28 1 -28 14 0 9 -31 85 -69 168
-38 83 -91 205 -119 271 -110 266 -185 443 -213 506 -16 36 -29 72 -29 81 0
15 37 39 54 34 5 -1 41 -83 81 -181z m-241 63 c10 -29 41 -102 68 -163 58
-125 126 -288 204 -488 59 -152 71 -176 121 -259 37 -60 40 -93 8 -93 -26 0
-131 166 -178 283 -43 104 -111 263 -219 506 -92 207 -99 233 -73 253 34 24
49 15 69 -39z m-2007 0 c24 -22 30 -57 13 -74 -6 -6 -1 -22 15 -45 36 -50 114
-232 105 -244 -5 -5 2 -41 16 -80 13 -38 24 -80 24 -92 0 -13 6 -23 14 -23 22
0 67 -41 81 -73 8 -20 10 -41 4 -60 -7 -25 3 -59 62 -207 53 -135 70 -187 67
-216 -2 -31 -8 -40 -24 -42 -16 -2 -23 6 -34 40 -7 24 -32 90 -56 148 -23 58
-48 124 -55 147 l-12 43 -48 -2 c-57 -1 -110 26 -123 64 -17 48 26 143 72 159
19 7 -40 159 -71 181 -22 16 -24 22 -15 46 9 23 6 41 -15 98 -14 38 -31 86
-37 107 -11 34 -14 37 -50 37 -49 0 -85 14 -94 36 -8 22 4 34 57 56 56 23 76
22 104 -4z m1895 -288 c65 -151 143 -331 173 -400 29 -69 55 -138 57 -155 2
-25 12 -34 53 -55 65 -33 98 -82 92 -133 -15 -112 -126 -151 -213 -74 -36 30
-36 32 -31 89 3 33 14 74 26 94 l22 37 -52 126 c-29 69 -94 216 -144 326 -120
260 -161 375 -145 405 6 11 18 20 27 18 10 -2 59 -104 135 -278z m4095 99 c76
-36 118 -84 177 -198 43 -84 126 -282 126 -301 0 -6 -6 -10 -12 -10 -7 0 -41
-13 -76 -30 l-63 -30 -16 38 c-74 177 -147 327 -176 359 -50 56 -148 50 -204
-11 -51 -56 -46 -87 44 -297 42 -99 74 -180 72 -182 -10 -8 -137 -67 -143 -67
-4 0 -30 48 -58 108 -28 59 -91 192 -140 295 -50 103 -89 189 -87 191 14 13
112 56 126 56 10 0 24 -13 31 -30 8 -16 17 -30 20 -30 4 0 21 21 37 46 38 56
81 90 148 115 65 24 111 19 194 -22z m-534 -487 c177 -355 179 -360 131 -462
-46 -101 -102 -142 -262 -195 -52 -17 -105 -27 -142 -27 -69 0 -170 27 -170
46 0 18 57 121 75 136 12 10 21 10 41 1 49 -22 160 -3 232 41 62 38 81 122 41
187 l-21 34 -29 -51 c-50 -89 -122 -127 -239 -127 -65 0 -85 5 -142 33 -80 39
-119 82 -166 181 -32 66 -36 84 -36 156 -1 72 2 86 26 122 32 48 73 81 144
117 59 29 126 33 187 12 39 -14 52 -10 36 14 -23 37 -10 54 54 76 34 12 67 21
72 22 6 1 81 -142 168 -316z m-947 257 c18 -17 24 -33 24 -65 0 -35 -5 -47
-35 -72 -48 -43 -95 -50 -139 -22 -52 32 -60 95 -18 158 29 45 121 46 168 1z
m-301 -214 c88 -23 92 -31 53 -98 l-33 -55 -100 1 c-108 2 -141 -8 -197 -61
-35 -33 -39 -89 -7 -118 23 -21 26 -21 274 -13 150 4 195 -5 244 -53 80 -78
98 -187 49 -289 -70 -142 -299 -221 -506 -174 -98 23 -100 25 -60 76 18 25 40
55 48 68 14 21 18 22 63 10 101 -25 255 12 297 71 27 39 26 81 -5 110 -26 25
-13 25 -285 4 -172 -13 -277 43 -314 166 -20 67 -20 93 0 161 19 62 60 107
138 146 126 64 225 78 341 48z m429 -114 c24 -47 65 -135 91 -196 26 -60 65
-147 86 -193 22 -45 39 -86 39 -91 0 -8 -140 -75 -145 -69 -21 24 -280 597
-273 603 2 1 23 9 47 19 24 9 54 24 65 32 26 18 28 15 90 -105z m-5294 -86 c0
-5 -5 -3 -10 5 -5 8 -10 20 -10 25 0 6 5 3 10 -5 5 -8 10 -19 10 -25z m4250
-272 c73 -32 134 -93 177 -177 19 -37 32 -70 29 -73 -2 -3 -47 -20 -98 -38
-106 -37 -291 -109 -327 -128 -35 -18 -31 -29 19 -54 85 -44 184 -24 269 52
l41 37 55 -22 c31 -12 57 -26 60 -30 8 -14 -73 -116 -113 -143 -92 -61 -226
-83 -324 -53 -56 16 -154 82 -198 132 -54 62 -75 118 -74 204 0 41 5 93 12
116 26 89 169 189 289 203 77 10 117 4 183 -26z m2596 -26 c9 -28 23 -65 31
-80 8 -16 13 -36 11 -45 -2 -11 -12 0 -27 31 -12 26 -26 47 -31 47 -10 0 -20
-25 -20 -49 0 -37 -22 -42 -57 -11 -55 49 -71 32 -33 -34 23 -38 13 -57 -14
-27 -20 22 -56 113 -56 141 0 26 26 26 65 0 53 -35 82 -25 76 26 -2 21 19 65
28 59 5 -3 17 -29 27 -58z m-6670 -124 c-3 -3 -16 18 -30 48 -39 89 -39 110 0
31 20 -40 34 -76 30 -79z m7641 75 c-3 -7 -5 -2 -5 12 0 14 2 19 5 13 2 -7 2
-19 0 -25z m-4426 -61 c14 -27 35 -57 45 -67 19 -19 20 -18 84 10 36 16 70 30
76 30 5 0 20 -28 32 -61 26 -73 24 -78 -54 -110 -37 -16 -54 -28 -54 -41 0
-39 84 -232 118 -270 26 -30 88 -24 124 12 17 17 31 30 32 28 1 -2 15 -36 31
-77 l28 -74 -29 -24 c-48 -38 -125 -73 -164 -73 -43 0 -117 44 -148 87 -37 52
-108 208 -127 277 -20 74 -29 78 -90 49 -22 -10 -39 -13 -44 -7 -8 8 -51 118
-51 129 0 3 13 11 30 20 24 12 28 19 20 33 -15 26 -50 121 -50 136 0 16 93 46
135 43 25 -2 35 -10 56 -50z m3196 21 c29 -27 29 -43 -2 -84 -14 -18 -25 -35
-25 -38 0 -3 14 -13 31 -21 17 -9 28 -19 25 -22 -3 -3 -21 4 -41 16 -59 34
-82 22 -55 -30 8 -14 7 -19 -3 -19 -12 0 -63 124 -70 170 -1 10 15 21 48 32
64 22 64 22 92 -4z m-7932 -35 c17 -40 72 -108 181 -224 71 -74 72 -76 67
-120 -3 -27 7 -100 26 -194 29 -144 49 -212 175 -609 31 -99 58 -192 59 -208
1 -19 7 -28 19 -28 21 0 34 -23 47 -79 8 -38 7 -42 -13 -46 -29 -7 -201 -34
-202 -32 -27 37 -53 92 -52 109 0 13 -4 41 -10 63 -6 22 -20 87 -31 144 -11
57 -25 108 -30 115 -13 15 -38 115 -52 206 -8 52 -28 112 -65 194 -54 120 -95
182 -174 266 l-42 45 28 110 c18 74 29 147 32 222 2 62 9 110 13 107 5 -3 16
-22 24 -41z m9152 15 c-3 -7 -5 -2 -5 12 0 14 2 19 5 13 2 -7 2 -19 0 -25z
m-41 -103 c-41 -68 -84 -113 -140 -146 -28 -16 -55 -29 -61 -29 -5 0 13 13 40
29 58 33 137 114 162 165 9 20 19 34 21 31 2 -2 -8 -25 -22 -50z m-1385 28
c65 -39 60 -117 -11 -166 -37 -26 -77 -21 -111 12 -39 40 -36 104 8 153 21 23
76 23 114 1z m-4949 -40 c59 -60 46 -180 -26 -224 -76 -47 -214 3 -231 83 -10
44 2 93 32 129 35 42 57 49 131 46 55 -3 66 -7 94 -34z m4738 -11 c0 -12 -15
-25 -42 -38 -25 -11 -44 -27 -46 -38 -4 -17 1 -18 42 -12 50 8 57 -1 25 -30
-17 -16 -20 -26 -15 -62 4 -31 2 -42 -6 -40 -13 5 -78 151 -78 178 0 11 16 25
48 38 60 26 72 26 72 4z m-155 -54 c-4 -9 -21 -24 -40 -34 -30 -16 -32 -19
-20 -38 27 -42 56 -129 46 -139 -11 -11 -30 24 -55 100 -16 49 -19 52 -42 43
-45 -18 -56 -10 -31 23 10 14 136 68 145 62 1 -1 0 -9 -3 -17z m-2863 -93 l25
-64 -50 -38 c-116 -87 -120 -135 -33 -353 81 -203 80 -189 3 -227 -50 -24 -68
-29 -75 -20 -6 7 -40 77 -75 157 -36 80 -95 210 -131 289 -36 79 -66 149 -66
156 0 10 104 65 123 65 3 0 13 -20 23 -45 9 -25 21 -45 25 -45 5 0 22 24 39
54 17 29 38 60 48 69 18 16 103 67 113 67 3 0 17 -29 31 -65z m2638 -16 c15
-12 50 -46 75 -76 37 -42 45 -57 36 -66 -9 -9 -25 2 -67 46 -56 59 -74 64 -74
21 0 -24 3 -25 33 -19 32 7 32 7 13 -13 -10 -12 -21 -36 -25 -53 -4 -18 -12
-34 -19 -37 -9 -3 -12 24 -12 107 0 61 2 111 5 111 3 0 19 -10 35 -21z m1670
-38 c-19 -10 -91 -37 -159 -60 -68 -23 -149 -55 -180 -70 -61 -31 -291 -114
-298 -108 -2 2 38 19 89 37 51 18 134 51 183 72 50 22 133 55 185 73 52 18
118 42 145 53 63 25 80 27 35 3z m-1864 -94 c9 -27 14 -51 11 -54 -8 -8 -57
93 -57 119 0 21 0 21 15 2 8 -10 22 -41 31 -67z m-94 16 c28 -25 24 -79 -8
-100 -15 -9 -32 -30 -39 -46 l-12 -28 -31 59 c-34 63 -40 100 -20 120 18 18
88 15 110 -5z m-262 -73 c0 -5 -5 -10 -12 -10 -16 0 -58 -41 -58 -57 0 -15 26
-18 35 -3 7 11 45 14 45 4 0 -3 -11 -15 -26 -26 -16 -13 -24 -28 -22 -42 3
-21 24 -25 83 -14 11 2 21 -3 22 -12 3 -11 -13 -20 -53 -31 l-56 -17 -39 85
c-22 47 -37 89 -33 92 8 9 87 40 102 40 6 1 12 -3 12 -9z m476 -7 c-4 -4 -27
-15 -51 -24 -43 -16 -45 -16 -45 1 0 10 6 21 13 23 19 8 91 8 83 0z m-3111
-27 c36 -15 87 -71 114 -124 44 -87 172 -384 169 -393 -2 -5 -31 -22 -65 -38
l-62 -30 -20 35 -21 35 -56 -60 c-68 -74 -140 -111 -226 -118 -57 -4 -69 -1
-127 29 -77 40 -101 76 -101 156 0 98 50 166 167 226 55 27 170 59 185 50 21
-13 5 31 -21 57 -26 25 -37 29 -88 29 -46 0 -74 -7 -132 -35 -40 -20 -86 -44
-101 -55 -16 -11 -30 -20 -33 -20 -2 0 -22 24 -44 54 l-41 54 69 47 c156 107
325 146 434 101z m-2207 -41 c-3 -3 -9 2 -12 12 -6 14 -5 15 5 6 7 -7 10 -15
7 -18z m4680 -11 c43 -30 18 -134 -32 -134 -8 0 -16 -12 -18 -27 -3 -25 -7
-22 -32 32 -39 84 -43 115 -21 132 25 18 75 17 103 -3z m-3219 -10 c39 -8 77
-24 86 -34 16 -18 16 -21 -3 -52 -11 -18 -34 -46 -51 -62 -29 -27 -32 -28 -75
-17 -111 28 -179 8 -262 -74 -44 -44 -54 -60 -64 -110 -28 -133 30 -269 136
-323 125 -64 291 -20 355 94 17 29 32 54 33 54 1 0 29 -5 62 -11 93 -17 102
-33 56 -102 -15 -23 -34 -54 -42 -70 -18 -36 -101 -99 -172 -132 -254 -116
-522 17 -603 300 -27 91 -16 225 24 311 47 99 146 187 260 229 50 19 178 18
260 -1z m4941 -4 c-8 -5 -19 -10 -25 -10 -5 0 -3 5 5 10 8 5 20 10 25 10 6 0
3 -5 -5 -10z m-1880 -76 c36 -81 37 -94 6 -127 -56 -60 -103 -42 -150 59 -30
63 -33 87 -10 82 9 -2 25 -27 36 -58 12 -30 25 -61 31 -67 14 -19 41 -16 62 7
18 19 18 23 2 74 -17 51 -22 96 -12 96 3 0 18 -30 35 -66z m1806 47 c-7 -11
-177 -74 -183 -68 -3 3 127 57 185 76 2 1 1 -3 -2 -8z m-2028 -84 c-9 -7 -23
-16 -32 -22 -15 -9 -14 -15 9 -59 14 -27 25 -61 25 -75 -1 -20 -9 -11 -36 42
-29 56 -40 69 -65 74 -17 3 -26 10 -22 14 13 13 86 38 113 38 22 0 23 -1 8
-12z m440 -15 c3 -9 -2 -13 -14 -10 -9 1 -19 9 -22 16 -3 9 2 13 14 10 9 -1
19 -9 22 -16z m1371 14 c-4 -4 -166 -70 -278 -112 -107 -41 -78 -20 37 26 207
83 255 100 241 86z m-1934 -149 c19 -26 35 -49 35 -52 0 -7 -33 7 -61 27 -24
16 -28 16 -39 3 -7 -8 -19 -15 -26 -15 -8 0 -14 -8 -14 -17 -1 -20 -50 54 -50
73 0 23 33 25 57 3 29 -28 37 -20 25 24 -6 20 -7 39 -4 42 7 7 17 -5 77 -88z
m-304 -44 c5 -14 8 -28 5 -30 -4 -5 -36 50 -36 62 0 14 22 -9 31 -32z m76 5
c-3 -7 -5 -2 -5 12 0 14 2 19 5 13 2 -7 2 -19 0 -25z m77 6 c10 -38 0 -41 -12
-5 -6 17 -7 31 -3 31 5 0 12 -12 15 -26z m1675 21 c-9 -8 -192 -75 -196 -71
-2 2 17 12 44 22 26 9 68 25 93 35 44 18 68 23 59 14z m-1881 -44 c3 -10 0
-12 -12 -8 -9 4 -28 2 -42 -3 -19 -7 -25 -16 -22 -33 2 -17 11 -23 43 -27 47
-6 78 -47 59 -77 -15 -25 -36 -27 -75 -9 -19 9 -24 13 -11 10 32 -8 62 4 62
25 0 13 -10 20 -36 24 -20 3 -42 11 -50 18 -22 18 -17 66 9 84 26 18 68 16 75
-4z m139 -23 c-3 -8 -6 -5 -6 6 -1 11 2 17 5 13 3 -3 4 -12 1 -19z m99 -36
c-9 -8 -26 10 -26 26 1 15 2 15 15 -2 8 -11 13 -21 11 -24z m1434 24 c0 -2
-37 -17 -82 -32 -46 -15 -90 -29 -98 -32 -8 -3 -12 -2 -8 3 6 7 164 63 181 65
4 0 7 -2 7 -4z m-1494 -53 c-11 -11 -36 7 -36 27 0 20 0 20 21 -1 11 -11 18
-23 15 -26z m-387 -18 c46 -50 51 -80 20 -114 -39 -41 -99 -51 -99 -16 0 9
-13 42 -30 75 -16 33 -30 64 -30 69 0 10 49 28 81 30 9 1 35 -19 58 -44z m311
-6 c0 -4 -7 -9 -15 -13 -12 -4 -15 3 -15 32 l1 37 14 -25 c8 -14 14 -28 15
-31z m-510 -8 c0 -26 -79 -78 -91 -59 -13 20 -8 25 41 51 25 14 46 25 48 26 1
0 2 -7 2 -18z m1790 -20 c-8 -5 -26 -11 -40 -15 -21 -5 -20 -3 5 9 32 15 60
20 35 6z m-1944 -111 c-16 -89 -14 -103 12 -96 10 2 31 7 47 11 54 12 13 -14
-53 -35 -74 -22 -75 -21 -38 85 14 38 23 71 21 73 -1 2 -27 -4 -56 -12 -52
-16 -72 -14 -53 3 9 10 127 59 132 56 1 -1 -4 -39 -12 -85z m1854 76 c-35 -19
-202 -77 -207 -72 -2 2 15 11 39 20 24 8 72 27 108 40 72 27 98 32 60 12z
m-1670 -26 c0 -5 -4 -10 -9 -10 -4 0 -20 -11 -34 -24 -49 -45 -10 -73 54 -40
41 21 51 8 16 -22 -55 -47 -105 -25 -122 53 -6 30 -4 33 27 42 45 13 68 13 68
1z m-342 -123 c36 -90 39 -107 19 -107 -7 0 -25 36 -41 83 -15 45 -30 88 -33
95 -2 6 1 12 9 12 7 0 28 -37 46 -83z m1677 23 c-80 -33 -129 -50 -122 -44 12
12 109 52 127 52 9 1 7 -3 -5 -8z m-1818 -60 c26 -33 58 -62 71 -66 12 -3 22
-10 22 -14 0 -15 -39 -21 -60 -10 -22 12 -76 5 -97 -12 -7 -6 -13 -19 -13 -29
0 -10 -5 -21 -11 -25 -8 -5 -9 14 -4 67 8 87 22 149 35 149 4 0 30 -27 57 -60z
m1681 5 c-3 -3 -43 -19 -89 -36 -46 -17 -80 -27 -76 -22 5 4 41 20 80 35 71
26 95 33 85 23z m-1870 -37 c19 -25 24 -60 11 -84 -10 -20 -10 -27 6 -44 10
-11 15 -23 11 -28 -7 -7 -31 19 -39 42 -2 7 -13 4 -30 -7 -21 -14 -27 -25 -27
-53 0 -31 -2 -35 -15 -24 -8 7 -15 25 -15 41 0 16 -9 52 -20 80 -10 29 -17 56
-14 61 16 26 114 38 132 16z m1587 -73 c-27 -13 -54 -24 -60 -24 -5 1 13 11
40 24 28 13 55 24 60 24 6 -1 -12 -11 -40 -24z m-1796 -52 c49 -66 67 -100 58
-110 -4 -3 -16 6 -27 20 l-20 26 -41 -22 c-28 -15 -42 -30 -46 -49 -3 -15 -10
-25 -15 -21 -25 15 12 213 40 213 5 0 28 -26 51 -57z m1706 15 c-29 -17 -218
-88 -222 -84 -2 2 29 16 69 31 40 15 91 36 113 45 45 21 70 25 40 8z m-1905
-43 c12 -15 14 -14 -63 -30 -34 -7 -51 -49 -35 -83 20 -42 60 -50 109 -23 51
29 60 21 21 -19 -41 -41 -89 -41 -134 -1 -68 61 -22 162 78 170 6 1 17 -6 24
-14z m1669 -49 c-9 -9 -162 -67 -166 -62 -2 2 31 18 74 35 73 28 102 37 92 27z
m-1871 -18 c-3 -7 -23 -20 -46 -28 -45 -15 -51 -29 -26 -54 14 -14 18 -14 37
-1 12 8 27 15 34 15 23 0 14 -21 -17 -38 -34 -19 -35 -22 -17 -46 13 -17 15
-17 46 -1 18 9 35 14 38 11 9 -9 -45 -56 -67 -57 -11 -1 -25 -2 -32 -3 -6 -1
-23 38 -38 86 l-27 88 51 19 c61 24 69 25 64 9z m-164 -119 c35 -42 35 -87 -1
-121 -27 -25 -92 -63 -97 -56 -9 11 -56 156 -56 170 0 24 28 37 82 38 40 0 50
-4 72 -31z m1645 -14 c-10 -9 -212 -86 -216 -82 -2 3 42 23 99 45 97 38 128
48 117 37z m-2005 -135 c48 -51 74 -95 63 -106 -4 -4 -13 -1 -21 5 -25 21 -79
9 -93 -19 -22 -44 -38 -31 -36 30 3 90 13 140 27 140 7 0 34 -22 60 -50z
m1736 31 c-8 -5 -26 -11 -40 -15 -21 -5 -20 -3 5 9 32 15 60 20 35 6z m-190
-80 c-8 -5 -26 -11 -40 -15 -21 -5 -20 -3 5 9 32 15 60 20 35 6z m-80 -31 c-8
-5 -22 -9 -30 -9 -10 0 -8 3 5 9 27 12 43 12 25 0z m-220 -84 c-14 -7 -36 -16
-50 -20 -14 -3 -7 3 15 13 45 22 73 27 35 7z m-120 -46 c-8 -5 -19 -10 -25
-10 -5 0 -3 5 5 10 8 5 20 10 25 10 6 0 3 -5 -5 -10z m-210 -84 c0 -6 -123
-47 -127 -42 -4 4 96 43 115 45 6 0 12 -1 12 -3z m-1891 -91 c0 -5 -6 1 -14
15 -8 14 -14 30 -14 35 0 6 6 -1 14 -15 8 -14 14 -29 14 -35z m137 -221 c57
-65 135 -111 235 -138 30 -8 45 -15 34 -15 -32 -1 -111 26 -167 56 -64 35
-158 138 -203 224 -49 93 -44 100 7 9 22 -41 65 -102 94 -136z m1339 151 c-16
-8 -37 -14 -45 -14 -8 0 1 7 20 14 46 18 64 17 25 0z m-405 -149 c0 -6 -123
-47 -127 -42 -2 2 22 13 54 24 62 22 73 24 73 18z m4815 -77 c15 -28 25 -52
22 -55 -5 -5 -73 94 -84 123 -13 36 32 -14 62 -68z m-31 -9 c29 -35 52 -101
43 -124 -3 -8 -31 -23 -62 -32 -56 -16 -57 -16 -82 8 l-26 23 12 -23 c7 -13
10 -28 8 -35 -5 -14 -107 91 -107 109 0 23 18 24 46 1 28 -21 28 -21 -5 21
-38 49 -35 57 29 68 19 3 42 7 50 9 47 10 69 4 94 -25z m-2519 -15 c62 -28
119 -85 152 -150 33 -68 37 -88 36 -177 -2 -83 -28 -152 -75 -195 -33 -30
-138 -72 -201 -79 -82 -10 -179 22 -234 77 -76 75 -126 259 -79 291 8 5 7 8
-1 8 -9 0 -10 7 -3 28 17 46 53 112 61 112 4 0 10 8 14 18 3 9 27 32 54 50 80
54 180 60 276 17z m-2868 -61 c-3 -3 -12 -4 -19 -1 -8 3 -5 6 6 6 11 1 17 -2
13 -5z m5463 -157 c0 -40 -77 -68 -104 -38 -22 24 -15 38 27 50 58 17 77 14
77 -12z m-144 -53 c5 -37 4 -38 -10 -20 -18 22 -23 87 -6 70 6 -6 13 -28 16
-50z"/>
<path d="M8307 9644 c-4 -4 -7 -14 -7 -23 0 -11 3 -12 11 -4 6 6 10 16 7 23
-2 6 -7 8 -11 4z"/>
<path d="M7625 9480 c3 -5 8 -10 11 -10 2 0 4 5 4 10 0 6 -5 10 -11 10 -5 0
-7 -4 -4 -10z"/>
<path d="M6367 8612 c-21 -23 -21 -41 -1 -70 28 -40 114 -24 114 23 0 28 -43
65 -75 65 -12 0 -29 -8 -38 -18z"/>
<path d="M5792 8428 c-7 -7 -12 -25 -12 -40 0 -39 40 -58 78 -37 33 18 39 44
16 70 -19 21 -64 25 -82 7z"/>
<path d="M5046 8254 c-30 -29 -10 -74 32 -74 34 0 52 16 52 47 0 38 -55 56
-84 27z"/>
<path d="M7463 7018 c-18 -24 -23 -49 -12 -69 8 -16 19 -19 52 -17 37 3 42 6
45 30 5 41 -14 68 -47 68 -16 0 -33 -6 -38 -12z"/>
<path d="M4725 8166 c-27 -41 13 -89 55 -66 27 14 27 65 1 80 -29 15 -39 13
-56 -14z"/>
<path d="M5423 8133 c-16 -6 -17 -45 -1 -61 20 -20 56 -14 74 13 13 20 14 28
4 40 -12 14 -52 19 -77 8z"/>
<path d="M5955 7532 c-11 -2 -41 -13 -67 -24 -34 -15 -48 -26 -48 -40 0 -32
38 -91 74 -116 66 -45 82 -74 140 -242 64 -185 89 -267 84 -281 -5 -15 -71 33
-85 61 -7 14 -38 80 -69 148 -32 67 -61 122 -65 122 -4 0 -33 51 -64 113 -90
175 -118 202 -171 162 -22 -16 -35 15 121 -275 43 -80 93 -179 111 -221 18
-42 42 -95 54 -119 l22 -43 50 6 c27 4 63 13 79 21 16 8 54 18 85 22 35 4 65
15 80 28 l25 21 -61 135 c-123 271 -169 360 -195 372 -18 8 -29 26 -41 67 -20
69 -33 88 -59 83z"/>
<path d="M5900 7315 c14 -36 50 -105 55 -105 5 0 -21 77 -37 108 -15 30 -30
28 -18 -3z"/>
<path d="M4034 7915 c-15 -23 -15 -27 0 -50 28 -42 86 -23 86 29 0 49 -58 63
-86 21z"/>
<path d="M7020 7830 c-11 -11 -20 -24 -20 -29 0 -17 29 -32 57 -29 23 2 29 9
31 32 6 46 -33 61 -68 26z"/>
<path d="M3390 7721 c-11 -22 -13 -64 -4 -74 13 -12 84 33 84 53 0 37 -62 53
-80 21z"/>
<path d="M3092 7594 c-39 -27 -23 -84 23 -84 43 0 61 53 29 84 -19 20 -24 20
-52 0z"/>
<path d="M2357 7252 c-32 -35 -16 -82 28 -82 31 0 57 33 53 67 -2 23 -8 29
-34 31 -20 2 -36 -3 -47 -16z"/>
<path d="M1680 6973 c-41 -15 -52 -69 -21 -97 26 -24 60 -17 85 17 19 26 19
30 5 55 -15 27 -40 36 -69 25z"/>
<path d="M4538 5023 c7 -3 16 -2 19 1 4 3 -2 6 -13 5 -11 0 -14 -3 -6 -6z"/>
<path d="M1744 6635 c-24 -36 -6 -75 34 -75 34 0 52 16 52 46 0 52 -58 71 -86
29z"/>
<path d="M7898 5949 c-21 -12 -24 -59 -6 -77 18 -18 56 -14 68 7 14 27 13 47
-6 65 -18 18 -32 20 -56 5z"/>
<path d="M2006 5944 c-20 -19 -21 -60 -2 -67 20 -8 66 30 66 53 0 16 -18 30
-40 30 -5 0 -16 -7 -24 -16z"/>
<path d="M2272 5024 c-31 -21 -30 -71 2 -85 49 -23 92 30 62 76 -19 29 -33 31
-64 9z"/>
<path d="M8001 5431 c-26 -47 -6 -81 46 -81 42 0 60 28 41 68 -17 35 -71 44
-87 13z"/>
<path d="M3862 3534 c-43 -30 -18 -94 37 -94 34 0 61 28 61 63 0 44 -55 61
-98 31z"/>
<path d="M6700 4500 c-24 -24 -25 -34 -4 -54 41 -41 115 0 92 50 -14 30 -60
32 -88 4z"/>
<path d="M3682 4498 c5 -15 58 -24 58 -10 0 11 -24 22 -47 22 -8 0 -13 -6 -11
-12z"/>
<path d="M4276 3791 c-25 -27 -6 -64 31 -59 34 4 52 32 37 56 -16 24 -47 26
-68 3z"/>
<path d="M8127 5132 c-23 -25 -21 -58 3 -82 24 -24 38 -25 68 -4 25 17 31 71
10 92 -18 18 -63 14 -81 -6z"/>
<path d="M5716 4108 c-21 -29 -20 -41 3 -62 30 -27 83 -18 95 16 20 56 -64 95
-98 46z"/>
<path d="M7402 4868 c-18 -18 -14 -56 8 -78 35 -35 83 -21 83 24 0 51 -59 86
-91 54z"/>
<path d="M2776 4099 c-46 -36 -28 -99 28 -99 24 0 49 46 42 75 -10 38 -39 49
-70 24z"/>
<path d="M4750 3740 c-36 -36 -20 -80 30 -80 29 0 60 27 60 52 0 19 -32 48
-53 48 -9 0 -26 -9 -37 -20z"/>
<path d="M7675 4124 c-90 -47 -118 -128 -76 -219 34 -77 120 -123 204 -112 50
7 115 52 135 95 15 31 15 37 -8 104 -27 79 -49 112 -90 133 -38 20 -127 19
-165 -1z"/>
<path d="M6016 3495 c-50 -18 -84 -51 -100 -100 -16 -44 -10 -75 13 -75 8 0
80 26 158 57 l143 57 -22 24 c-50 52 -114 65 -192 37z"/>
<path d="M8475 3476 c-16 -12 -18 -18 -9 -33 6 -10 20 -19 32 -21 23 -4 65 33
59 51 -6 18 -59 20 -82 3z"/>
<path d="M671 3284 c0 -11 3 -14 6 -6 3 7 2 16 -1 19 -3 4 -6 -2 -5 -13z"/>
<path d="M765 2930 c23 -26 19 -41 -10 -34 -21 5 -25 3 -25 -17 0 -35 43 -121
74 -146 14 -13 28 -23 30 -23 2 0 6 14 10 30 13 68 -38 210 -75 207 -16 -1
-17 -3 -4 -17z"/>
<path d="M8266 3369 c-55 -64 -11 -127 63 -91 40 19 56 54 40 85 -25 47 -67
50 -103 6z"/>
<path d="M3254 3295 c-19 -29 -11 -60 21 -81 36 -24 79 -1 83 44 4 43 -12 62
-54 62 -25 0 -38 -7 -50 -25z"/>
<path d="M7397 3073 c-11 -10 -8 -71 4 -78 18 -12 56 4 62 24 9 37 -42 79 -66
54z"/>
<path d="M4515 2648 c-42 -13 -135 -78 -157 -109 -28 -37 -15 -77 30 -96 46
-19 111 -4 169 40 66 51 77 83 51 150 -11 29 -36 34 -93 15z"/>
<path d="M6979 2893 c-7 -19 -7 -35 0 -50 13 -29 23 -29 58 1 24 21 26 26 15
50 -16 37 -59 36 -73 -1z"/>
<path d="M5901 2478 c-9 -25 1 -71 20 -94 18 -22 47 -17 65 11 14 21 14 30 4
55 -21 51 -74 67 -89 28z"/>
<path d="M5286 2204 c-15 -40 7 -58 42 -35 12 7 12 12 1 30 -16 25 -34 27 -43
5z"/>
<path d="M5054 2145 c-3 -20 -4 -39 0 -42 9 -10 86 19 86 32 0 18 -34 45 -58
45 -16 0 -23 -8 -28 -35z"/>
<path d="M4881 2044 c-38 -49 -25 -67 29 -39 35 18 37 26 11 49 -18 16 -20 16
-40 -10z"/>
<path d="M4267 1853 c-12 -11 -8 -59 8 -97 l15 -36 39 20 c44 22 58 49 41 79
-18 34 -82 55 -103 34z"/>
<path d="M3956 1674 c-9 -33 -4 -38 29 -30 27 7 32 25 13 44 -19 19 -35 14
-42 -14z"/>
<path d="M6200 886 c0 -8 -3 -16 -8 -18 -10 -4 -102 -128 -102 -138 0 -4 7
-10 15 -14 10 -4 15 1 15 15 0 12 27 52 60 89 33 37 57 70 53 74 -12 11 -33 6
-33 -8z"/>
<path d="M6290 870 c12 -7 6 -18 -33 -55 -26 -25 -51 -45 -57 -45 -16 0 -22
-40 -10 -75 7 -22 23 -41 40 -50 33 -17 76 -20 85 -5 3 6 17 10 30 10 13 0 27
5 30 10 4 7 13 6 27 -1 15 -8 23 -8 32 2 8 9 8 10 -3 4 -11 -6 -13 -4 -8 8 3
9 0 23 -8 31 -20 19 -19 36 1 36 10 0 14 6 11 18 -3 9 -8 34 -12 54 -3 21 -10
40 -15 43 -5 3 -21 -17 -37 -45 -15 -27 -30 -50 -33 -50 -4 0 -12 16 -19 36
-11 30 -11 38 3 53 22 25 20 31 -11 31 -21 0 -24 -3 -13 -10z"/>
<path d="M6117 679 c4 -13 8 -18 11 -10 2 7 -1 18 -6 23 -8 8 -9 4 -5 -13z"/>
<path d="M6376 621 c-41 -60 -96 -71 -143 -29 -21 20 -21 20 -32 -1 -13 -23
-37 -28 -44 -8 -2 6 -7 9 -11 5 -13 -11 18 -49 44 -54 14 -2 39 -9 55 -15 17
-6 38 -13 48 -16 26 -8 117 86 117 121 0 34 -10 33 -34 -3z"/>
</g>
</svg>
